ISO-10303-21;
HEADER;
FILE_DESCRIPTION (( 'STEP AP214' ),
    '1' );
FILE_NAME ('VJ0805A221KXRAT5Z.STEP',
    '2019-12-25T13:44:47',
    ( '' ),
    ( '' ),
    'SwSTEP 2.0',
    'SolidWorks 2018',
    '' );
FILE_SCHEMA (( 'AUTOMOTIVE_DESIGN' ));
ENDSEC;

DATA;
#1 = SURFACE_STYLE_USAGE ( .BOTH. , #496 ) ;
#2 = DIRECTION ( 'NONE',  ( -1.000000000000000000, 0.0000000000000000000, 0.0000000000000000000 ) ) ;
#3 = PRODUCT_DEFINITION_FORMATION_WITH_SPECIFIED_SOURCE ( 'ANY', '', #93, .NOT_KNOWN. ) ;
#4 = COLOUR_RGB ( '',0.7921568627450980005, 0.8196078431372548767, 0.9333333333333333481 ) ;
#5 = DIRECTION ( 'NONE',  ( 0.0000000000000000000, -1.000000000000000000, 0.0000000000000000000 ) ) ;
#6 = EDGE_CURVE ( 'NONE', #1136, #264, #325, .T. ) ;
#7 = VECTOR ( 'NONE', #866, 1000.000000000000000 ) ;
#8 = VERTEX_POINT ( 'NONE', #226 ) ;
#9 = ORIENTED_EDGE ( 'NONE', *, *, #106, .F. ) ;
#10 = ORIENTED_EDGE ( 'NONE', *, *, #1103, .F. ) ;
#11 = DIRECTION ( 'NONE',  ( 0.0000000000000000000, 1.000000000000000000, 0.0000000000000000000 ) ) ;
#12 = ORIENTED_EDGE ( 'NONE', *, *, #988, .F. ) ;
#13 = CARTESIAN_POINT ( 'NONE',  ( -0.9499999999999999556, 1.399999999999999911, -0.6249999999999998890 ) ) ;
#14 = AXIS2_PLACEMENT_3D ( 'NONE', #562, #89, #323 ) ;
#15 = DIRECTION ( 'NONE',  ( 1.000000000000000000, -0.0000000000000000000, -0.0000000000000000000 ) ) ;
#16 = VECTOR ( 'NONE', #1181, 1000.000000000000000 ) ;
#17 = VERTEX_POINT ( 'NONE', #520 ) ;
#18 = DIRECTION ( 'NONE',  ( 0.0000000000000000000, 0.0000000000000000000, 1.000000000000000000 ) ) ;
#19 = AXIS2_PLACEMENT_3D ( 'NONE', #349, #921, #354 ) ;
#20 = DIRECTION ( 'NONE',  ( -1.000000000000000000, 0.0000000000000000000, 0.0000000000000000000 ) ) ;
#21 = VECTOR ( 'NONE', #429, 1000.000000000000000 ) ;
#22 =( NAMED_UNIT ( * ) SI_UNIT ( $, .STERADIAN. ) SOLID_ANGLE_UNIT ( ) );
#23 = FACE_OUTER_BOUND ( 'NONE', #693, .T. ) ;
#24 = VERTEX_POINT ( 'NONE', #238 ) ;
#25 = LINE ( 'NONE', #633, #771 ) ;
#26 = EDGE_LOOP ( 'NONE', ( #793, #1065, #443, #1266, #748, #662, #109, #636 ) ) ;
#27 = CARTESIAN_POINT ( 'NONE',  ( 0.0000000000000000000, 0.0000000000000000000, 0.0000000000000000000 ) ) ;
#28 = CARTESIAN_POINT ( 'NONE',  ( 1.000000000000000000, 1.399999999999999911, -0.6249999999999998890 ) ) ;
#29 = AXIS2_PLACEMENT_3D ( 'NONE', #606, #729, #631 ) ;
#30 = ADVANCED_BREP_SHAPE_REPRESENTATION ( 'VJ0805A221KXRAT5Z', ( #1178, #761, #365, #209 ), #65 ) ;
#31 = VECTOR ( 'NONE', #182, 1000.000000000000000 ) ;
#32 = EDGE_CURVE ( 'NONE', #8, #877, #411, .T. ) ;
#33 = FILL_AREA_STYLE_COLOUR ( '', #732 ) ;
#34 = DIRECTION ( 'NONE',  ( 1.000000000000000000, 0.0000000000000000000, 0.0000000000000000000 ) ) ;
#35 = AXIS2_PLACEMENT_3D ( 'NONE', #942, #78, #1250 ) ;
#36 = ORIENTED_EDGE ( 'NONE', *, *, #804, .F. ) ;
#37 = VECTOR ( 'NONE', #299, 1000.000000000000000 ) ;
#38 = CARTESIAN_POINT ( 'NONE',  ( 500000.0000000000582, 1.399999999999999911, 0.5749999999566317577 ) ) ;
#39 = SURFACE_STYLE_USAGE ( .BOTH. , #615 ) ;
#40 = ORIENTED_EDGE ( 'NONE', *, *, #387, .T. ) ;
#41 = ORIENTED_EDGE ( 'NONE', *, *, #173, .F. ) ;
#42 = CARTESIAN_POINT ( 'NONE',  ( -0.9499999999999999556, 0.0000000000000000000, -0.5749999999999998446 ) ) ;
#43 = DIRECTION ( 'NONE',  ( -1.000000000000000000, -0.0000000000000000000, 8.673617379884036705E-17 ) ) ;
#44 = APPLICATION_PROTOCOL_DEFINITION ( 'draft international standard', 'automotive_design', 1998, #1004 ) ;
#45 = AXIS2_PLACEMENT_3D ( 'NONE', #222, #318, #18 ) ;
#46 = DIRECTION ( 'NONE',  ( 0.0000000000000000000, 0.0000000000000000000, -1.000000000000000000 ) ) ;
#47 = EDGE_CURVE ( 'NONE', #825, #314, #768, .T. ) ;
#48 = VERTEX_POINT ( 'NONE', #339 ) ;
#49 = CARTESIAN_POINT ( 'NONE',  ( 0.4949999999999995515, 1.449999999999999956, 0.5749999999999997335 ) ) ;
#50 = ADVANCED_FACE ( 'NONE', ( #881 ), #950, .T. ) ;
#51 = PLANE ( 'NONE',  #599 ) ;
#52 = VERTEX_POINT ( 'NONE', #602 ) ;
#53 = AXIS2_PLACEMENT_3D ( 'NONE', #1073, #980, #495 ) ;
#54 = VECTOR ( 'NONE', #625, 1000.000000000000000 ) ;
#55 = ORIENTED_EDGE ( 'NONE', *, *, #308, .T. ) ;
#56 = ADVANCED_FACE ( 'NONE', ( #58 ), #1255, .T. ) ;
#57 = DIRECTION ( 'NONE',  ( 0.0000000000000000000, 0.0000000000000000000, 1.000000000000000000 ) ) ;
#58 = FACE_OUTER_BOUND ( 'NONE', #653, .T. ) ;
#59 = ORIENTED_EDGE ( 'NONE', *, *, #320, .T. ) ;
#60 = CARTESIAN_POINT ( 'NONE',  ( 0.4949999999999993294, 1.399999999999999911, -0.6249999999999998890 ) ) ;
#61 = ORIENTED_EDGE ( 'NONE', *, *, #1011, .F. ) ;
#62 = EDGE_CURVE ( 'NONE', #825, #971, #297, .T. ) ;
#63 = CIRCLE ( 'NONE', #396, 0.05000000000000002359 ) ;
#64 = DIRECTION ( 'NONE',  ( 0.0000000000000000000, 0.0000000000000000000, 1.000000000000000000 ) ) ;
#65 =( GEOMETRIC_REPRESENTATION_CONTEXT ( 3 ) GLOBAL_UNCERTAINTY_ASSIGNED_CONTEXT ( ( #834 ) ) GLOBAL_UNIT_ASSIGNED_CONTEXT ( ( #1207, #1109, #1220 ) ) REPRESENTATION_CONTEXT ( 'NONE', 'WORKASPACE' ) );
#66 = FILL_AREA_STYLE ('',( #285 ) ) ;
#67 = ORIENTED_EDGE ( 'NONE', *, *, #796, .F. ) ;
#68 = CARTESIAN_POINT ( 'NONE',  ( -0.4949999999999994404, 1.399999999999999911, -0.5749999999999998446 ) ) ;
#69 = FACE_OUTER_BOUND ( 'NONE', #953, .T. ) ;
#70 = DIRECTION ( 'NONE',  ( -1.000000000000000000, -0.0000000000000000000, 8.673617379884036705E-17 ) ) ;
#71 = AXIS2_PLACEMENT_3D ( 'NONE', #426, #1102, #1019 ) ;
#72 = VERTEX_POINT ( 'NONE', #425 ) ;
#73 = DIRECTION ( 'NONE',  ( -1.000000000000000000, -0.0000000000000000000, 8.673617379884036705E-17 ) ) ;
#74 = ORIENTED_EDGE ( 'NONE', *, *, #859, .F. ) ;
#75 = VERTEX_POINT ( 'NONE', #1008 ) ;
#76 = ORIENTED_EDGE ( 'NONE', *, *, #84, .T. ) ;
#77 = EDGE_CURVE ( 'NONE', #373, #744, #688, .T. ) ;
#78 = DIRECTION ( 'NONE',  ( 1.000000000000000000, 0.0000000000000000000, -1.734723475976807341E-16 ) ) ;
#79 = DIRECTION ( 'NONE',  ( -1.000000000000000000, 0.0000000000000000000, 0.0000000000000000000 ) ) ;
#80 = AXIS2_PLACEMENT_3D ( 'NONE', #872, #505, #310 ) ;
#81 = CARTESIAN_POINT ( 'NONE',  ( 0.9499999999999999556, 0.05000000000000000278, -0.5749999999999998446 ) ) ;
#82 = CARTESIAN_POINT ( 'NONE',  ( 0.9499999999999999556, 0.0000000000000000000, -0.5749999999999998446 ) ) ;
#83 = CARTESIAN_POINT ( 'NONE',  ( -0.9999999999999995559, 1.449999999999999956, 0.6249999999999998890 ) ) ;
#84 = EDGE_CURVE ( 'NONE', #1127, #982, #522, .T. ) ;
#85 = ORIENTED_EDGE ( 'NONE', *, *, #681, .T. ) ;
#86 = COLOUR_RGB ( '',0.7921568627450980005, 0.8196078431372548767, 0.9333333333333333481 ) ;
#87 = FACE_OUTER_BOUND ( 'NONE', #1157, .T. ) ;
#88 = CARTESIAN_POINT ( 'NONE',  ( 0.4949999999999995515, 0.0000000000000000000, 0.5749999999999997335 ) ) ;
#89 = DIRECTION ( 'NONE',  ( -0.0000000000000000000, 1.000000000000000000, -0.0000000000000000000 ) ) ;
#90 = FACE_OUTER_BOUND ( 'NONE', #637, .T. ) ;
#91 = ORIENTED_EDGE ( 'NONE', *, *, #120, .F. ) ;
#92 = DIRECTION ( 'NONE',  ( -0.0000000000000000000, -1.000000000000000000, -0.0000000000000000000 ) ) ;
#93 = PRODUCT ( 'VJ0805A221KXRAT5Z', 'VJ0805A221KXRAT5Z', '', ( #1098 ) ) ;
#94 = FACE_OUTER_BOUND ( 'NONE', #603, .T. ) ;
#95 = FACE_OUTER_BOUND ( 'NONE', #857, .T. ) ;
#96 = ORIENTED_EDGE ( 'NONE', *, *, #406, .T. ) ;
#97 = CARTESIAN_POINT ( 'NONE',  ( 0.9999999999999995559, 1.399999999999999911, 0.6249999999999998890 ) ) ;
#98 = CYLINDRICAL_SURFACE ( 'NONE', #1208, 0.05000000000000002359 ) ;
#99 = ADVANCED_FACE ( 'NONE', ( #438 ), #1193, .T. ) ;
#100 = CARTESIAN_POINT ( 'NONE',  ( 0.0000000000000000000, 1.449999999999999956, 0.0000000000000000000 ) ) ;
#101 = LINE ( 'NONE', #381, #1143 ) ;
#102 = DIRECTION ( 'NONE',  ( 0.0000000000000000000, 0.0000000000000000000, -1.000000000000000000 ) ) ;
#103 = AXIS2_PLACEMENT_3D ( 'NONE', #351, #261, #57 ) ;
#104 = CARTESIAN_POINT ( 'NONE',  ( 0.9499999999999999556, 1.449999999999999956, -0.5749999999999998446 ) ) ;
#105 = CARTESIAN_POINT ( 'NONE',  ( -0.9499999999999995115, 0.04999999999999991257, 0.5749999999999998446 ) ) ;
#106 = EDGE_CURVE ( 'NONE', #1138, #313, #591, .T. ) ;
#107 = VERTEX_POINT ( 'NONE', #1216 ) ;
#108 = CIRCLE ( 'NONE', #45, 0.05000000000000002359 ) ;
#109 = ORIENTED_EDGE ( 'NONE', *, *, #951, .T. ) ;
#110 = CARTESIAN_POINT ( 'NONE',  ( -0.9499999999999995115, 1.449999999999999956, 0.6249999999999998890 ) ) ;
#111 = ORIENTED_EDGE ( 'NONE', *, *, #847, .F. ) ;
#112 = EDGE_LOOP ( 'NONE', ( #692, #360, #512, #837 ) ) ;
#113 = ORIENTED_EDGE ( 'NONE', *, *, #239, .T. ) ;
#114 = DIRECTION ( 'NONE',  ( -1.000000000000000000, 0.0000000000000000000, 0.0000000000000000000 ) ) ;
#115 = CARTESIAN_POINT ( 'NONE',  ( -0.9499999999999995115, 0.05000000000000000278, 0.5749999999999998446 ) ) ;
#116 = CARTESIAN_POINT ( 'NONE',  ( 0.9499999999999995115, 0.05000000000000000278, 0.5749999999999998446 ) ) ;
#117 = EDGE_LOOP ( 'NONE', ( #123, #485, #294, #91 ) ) ;
#118 = ORIENTED_EDGE ( 'NONE', *, *, #371, .T. ) ;
#119 = DIRECTION ( 'NONE',  ( 0.0000000000000000000, 0.0000000000000000000, 1.000000000000000000 ) ) ;
#120 = EDGE_CURVE ( 'NONE', #159, #1136, #1088, .T. ) ;
#121 = VECTOR ( 'NONE', #964, 1000.000000000000000 ) ;
#122 = FACE_OUTER_BOUND ( 'NONE', #501, .T. ) ;
#123 = ORIENTED_EDGE ( 'NONE', *, *, #927, .F. ) ;
#124 = CARTESIAN_POINT ( 'NONE',  ( 0.9499999999999995115, 1.399999999999999911, 0.5749999999999998446 ) ) ;
#125 = AXIS2_PLACEMENT_3D ( 'NONE', #1218, #232, #902 ) ;
#126 = EDGE_CURVE ( 'NONE', #843, #871, #937, .T. ) ;
#127 = CARTESIAN_POINT ( 'NONE',  ( -1.000000000000000000, 1.449999999999999956, -0.5749999999999998446 ) ) ;
#128 = FACE_OUTER_BOUND ( 'NONE', #26, .T. ) ;
#129 = DIRECTION ( 'NONE',  ( 0.0000000000000000000, 0.0000000000000000000, 1.000000000000000000 ) ) ;
#130 = STYLED_ITEM ( 'NONE', ( #802 ), #30 ) ;
#131 = ADVANCED_FACE ( 'NONE', ( #87 ), #1116, .T. ) ;
#132 = ADVANCED_FACE ( 'NONE', ( #524 ), #656, .T. ) ;
#133 = DIRECTION ( 'NONE',  ( 0.0000000000000000000, 0.0000000000000000000, -1.000000000000000000 ) ) ;
#134 = CARTESIAN_POINT ( 'NONE',  ( -0.9499999999999995115, 1.399999999999999911, 0.5749999999999998446 ) ) ;
#135 = ORIENTED_EDGE ( 'NONE', *, *, #927, .T. ) ;
#136 = DIRECTION ( 'NONE',  ( 0.0000000000000000000, 0.0000000000000000000, 1.000000000000000000 ) ) ;
#137 = ORIENTED_EDGE ( 'NONE', *, *, #1247, .T. ) ;
#138 = ORIENTED_EDGE ( 'NONE', *, *, #666, .T. ) ;
#139 = DIRECTION ( 'NONE',  ( 0.0000000000000000000, 0.0000000000000000000, 1.000000000000000000 ) ) ;
#140 = CARTESIAN_POINT ( 'NONE',  ( 500000.0000000000582, 1.399999999999999911, -0.6083333333767013684 ) ) ;
#141 = CARTESIAN_POINT ( 'NONE',  ( -0.4949999999999994404, 0.01666666666666666644, -0.5749999999999997335 ) ) ;
#142 = DIRECTION ( 'NONE',  ( 0.0000000000000000000, 0.0000000000000000000, 1.000000000000000000 ) ) ;
#143 = ADVANCED_FACE ( 'NONE', ( #827 ), #1120, .F. ) ;
#144 = DIRECTION ( 'NONE',  ( 1.000000000000000000, 0.0000000000000000000, -1.734723475976807341E-16 ) ) ;
#145 = DIRECTION ( 'NONE',  ( -1.000000000000000000, -0.0000000000000000000, -0.0000000000000000000 ) ) ;
#146 = EDGE_CURVE ( 'NONE', #75, #589, #841, .T. ) ;
#147 = CARTESIAN_POINT ( 'NONE',  ( -0.9499999999999997335, 0.0000000000000000000, 3.295974604355932986E-16 ) ) ;
#148 = ORIENTED_EDGE ( 'NONE', *, *, #464, .F. ) ;
#149 = CARTESIAN_POINT ( 'NONE',  ( 0.4949999999999995515, 1.399999999999999911, 0.5749999999999998446 ) ) ;
#150 = LINE ( 'NONE', #97, #892 ) ;
#151 = AXIS2_PLACEMENT_3D ( 'NONE', #301, #490, #102 ) ;
#152 = ADVANCED_FACE ( 'NONE', ( #644 ), #537, .F. ) ;
#153 = DIRECTION ( 'NONE',  ( 0.0000000000000000000, 1.000000000000000000, 0.0000000000000000000 ) ) ;
#154 = CIRCLE ( 'NONE', #1202, 0.05000000000000002359 ) ;
#155 = ORIENTED_EDGE ( 'NONE', *, *, #551, .T. ) ;
#156 = DIRECTION ( 'NONE',  ( 0.0000000000000000000, 0.0000000000000000000, 1.000000000000000000 ) ) ;
#157 = EDGE_CURVE ( 'NONE', #216, #1034, #548, .T. ) ;
#158 = ORIENTED_EDGE ( 'NONE', *, *, #670, .T. ) ;
#159 = VERTEX_POINT ( 'NONE', #646 ) ;
#160 = DIRECTION ( 'NONE',  ( -1.000000000000000000, 0.0000000000000000000, 0.0000000000000000000 ) ) ;
#161 = CARTESIAN_POINT ( 'NONE',  ( -0.9499999999999995115, 1.449999999999999956, 0.5749999999999998446 ) ) ;
#162 = ADVANCED_FACE ( 'NONE', ( #1100 ), #306, .T. ) ;
#163 = CIRCLE ( 'NONE', #1277, 0.05000000000000002359 ) ;
#164 = CARTESIAN_POINT ( 'NONE',  ( -0.4949999999999994404, 0.04999999999999991257, -0.5749999999999998446 ) ) ;
#165 = CARTESIAN_POINT ( 'NONE',  ( 0.9499999999999999556, 1.399999999999999911, -0.5749999999999998446 ) ) ;
#166 = EDGE_CURVE ( 'NONE', #744, #1187, #101, .T. ) ;
#167 = CARTESIAN_POINT ( 'NONE',  ( 1.000000000000000000, 0.04999999999999991257, -0.5749999999999998446 ) ) ;
#168 = DIRECTION ( 'NONE',  ( 0.0000000000000000000, 0.0000000000000000000, 1.000000000000000000 ) ) ;
#169 = ORIENTED_EDGE ( 'NONE', *, *, #1082, .F. ) ;
#170 = ORIENTED_EDGE ( 'NONE', *, *, #1011, .T. ) ;
#171 = DIRECTION ( 'NONE',  ( 0.0000000000000000000, 0.0000000000000000000, -1.000000000000000000 ) ) ;
#172 = ADVANCED_FACE ( 'NONE', ( #128 ), #273, .T. ) ;
#173 = EDGE_CURVE ( 'NONE', #52, #188, #600, .T. ) ;
#174 = AXIS2_PLACEMENT_3D ( 'NONE', #149, #518, #156 ) ;
#175 = AXIS2_PLACEMENT_3D ( 'NONE', #165, #807, #1025 ) ;
#176 = DIRECTION ( 'NONE',  ( 0.0000000000000000000, -1.000000000000000000, 0.0000000000000000000 ) ) ;
#177 = DIRECTION ( 'NONE',  ( 0.0000000000000000000, 0.0000000000000000000, 1.000000000000000000 ) ) ;
#178 = CARTESIAN_POINT ( 'NONE',  ( 0.9499999999999995115, 1.449999999999999956, 0.5749999999999998446 ) ) ;
#179 = ORIENTED_EDGE ( 'NONE', *, *, #974, .T. ) ;
#180 = CIRCLE ( 'NONE', #203, 0.05000000000000002359 ) ;
#181 = LINE ( 'NONE', #374, #949 ) ;
#182 = DIRECTION ( 'NONE',  ( 0.0000000000000000000, 1.000000000000000000, 0.0000000000000000000 ) ) ;
#183 = FACE_OUTER_BOUND ( 'NONE', #489, .T. ) ;
#184 = CYLINDRICAL_SURFACE ( 'NONE', #311, 0.05000000000000002359 ) ;
#185 = ORIENTED_EDGE ( 'NONE', *, *, #106, .T. ) ;
#186 = ORIENTED_EDGE ( 'NONE', *, *, #77, .F. ) ;
#187 = CARTESIAN_POINT ( 'NONE',  ( 0.9499999999999999556, 0.04999999999999991257, -0.5749999999999998446 ) ) ;
#188 = VERTEX_POINT ( 'NONE', #287 ) ;
#189 = EDGE_CURVE ( 'NONE', #947, #877, #63, .T. ) ;
#190 = DIRECTION ( 'NONE',  ( 1.000000000000000000, 0.0000000000000000000, 0.0000000000000000000 ) ) ;
#191 = DIRECTION ( 'NONE',  ( 0.0000000000000000000, 0.0000000000000000000, -1.000000000000000000 ) ) ;
#192 = DIRECTION ( 'NONE',  ( 0.0000000000000000000, 0.0000000000000000000, -1.000000000000000000 ) ) ;
#193 = AXIS2_PLACEMENT_3D ( 'NONE', #885, #1083, #782 ) ;
#194 = DIRECTION ( 'NONE',  ( 0.0000000000000000000, 1.000000000000000000, 0.0000000000000000000 ) ) ;
#195 = CARTESIAN_POINT ( 'NONE',  ( 0.9499999999999995115, 0.04999999999999991257, 0.5749999999999998446 ) ) ;
#196 = EDGE_CURVE ( 'NONE', #72, #579, #330, .T. ) ;
#197 = ORIENTED_EDGE ( 'NONE', *, *, #223, .F. ) ;
#198 = DIRECTION ( 'NONE',  ( 1.000000000000000000, 0.0000000000000000000, 0.0000000000000000000 ) ) ;
#199 = PRESENTATION_STYLE_ASSIGNMENT (( #1 ) ) ;
#200 = DIRECTION ( 'NONE',  ( 0.0000000000000000000, 0.0000000000000000000, 1.000000000000000000 ) ) ;
#201 = AXIS2_PLACEMENT_3D ( 'NONE', #38, #43, #532 ) ;
#202 = FACE_OUTER_BOUND ( 'NONE', #676, .T. ) ;
#203 = AXIS2_PLACEMENT_3D ( 'NONE', #134, #998, #34 ) ;
#204 = ADVANCED_FACE ( 'NONE', ( #831 ), #754, .F. ) ;
#205 = CARTESIAN_POINT ( 'NONE',  ( 1.000000000000000000, 0.04999999999999991257, -0.5749999999999998446 ) ) ;
#206 = LINE ( 'NONE', #973, #16 ) ;
#207 = CIRCLE ( 'NONE', #504, 0.05000000000000002359 ) ;
#208 =( NAMED_UNIT ( * ) SI_UNIT ( $, .STERADIAN. ) SOLID_ANGLE_UNIT ( ) );
#209 = AXIS2_PLACEMENT_3D ( 'NONE', #27, #231, #430 ) ;
#210 = DIRECTION ( 'NONE',  ( 0.0000000000000000000, 0.0000000000000000000, 1.000000000000000000 ) ) ;
#211 = CARTESIAN_POINT ( 'NONE',  ( -0.9499999999999995115, 1.399999999999999911, 0.5749999999999998446 ) ) ;
#212 = EDGE_CURVE ( 'NONE', #596, #1209, #954, .T. ) ;
#213 = VERTEX_POINT ( 'NONE', #42 ) ;
#214 = CIRCLE ( 'NONE', #408, 0.03333333333333324267 ) ;
#215 = LINE ( 'NONE', #227, #324 ) ;
#216 = VERTEX_POINT ( 'NONE', #1029 ) ;
#217 = DIRECTION ( 'NONE',  ( 0.0000000000000000000, 0.0000000000000000000, 1.000000000000000000 ) ) ;
#218 = AXIS2_PLACEMENT_3D ( 'NONE', #878, #990, #784 ) ;
#219 = ORIENTED_EDGE ( 'NONE', *, *, #1070, .F. ) ;
#220 = ORIENTED_EDGE ( 'NONE', *, *, #400, .F. ) ;
#221 = ORIENTED_EDGE ( 'NONE', *, *, #876, .F. ) ;
#222 = CARTESIAN_POINT ( 'NONE',  ( -0.4949999999999995515, 0.04999999999999991257, 0.5749999999999998446 ) ) ;
#223 = EDGE_CURVE ( 'NONE', #789, #460, #1137, .T. ) ;
#224 = CARTESIAN_POINT ( 'NONE',  ( 0.0000000000000000000, 0.0000000000000000000, 0.0000000000000000000 ) ) ;
#225 = FACE_OUTER_BOUND ( 'NONE', #657, .T. ) ;
#226 = CARTESIAN_POINT ( 'NONE',  ( 0.9499999999999999556, 0.04999999999999991257, -0.6249999999999998890 ) ) ;
#227 = CARTESIAN_POINT ( 'NONE',  ( 500000.0000000000582, 1.433333333333333348, -0.5750000000433679315 ) ) ;
#228 = ADVANCED_FACE ( 'NONE', ( #95 ), #556, .T. ) ;
#229 = PRODUCT_DEFINITION_CONTEXT ( 'detailed design', #1004, 'design' ) ;
#230 = ORIENTED_EDGE ( 'NONE', *, *, #173, .T. ) ;
#231 = DIRECTION ( 'NONE',  ( 0.0000000000000000000, 0.0000000000000000000, 1.000000000000000000 ) ) ;
#232 = DIRECTION ( 'NONE',  ( 0.0000000000000000000, 1.000000000000000000, 0.0000000000000000000 ) ) ;
#233 = VECTOR ( 'NONE', #73, 1000.000000000000000 ) ;
#234 = ORIENTED_EDGE ( 'NONE', *, *, #724, .F. ) ;
#235 = CYLINDRICAL_SURFACE ( 'NONE', #1243, 0.03333333333333324267 ) ;
#236 = VERTEX_POINT ( 'NONE', #359 ) ;
#237 = ORIENTED_EDGE ( 'NONE', *, *, #1070, .T. ) ;
#238 = CARTESIAN_POINT ( 'NONE',  ( -0.4949999999999995515, 1.449999999999999956, 0.5749999999999997335 ) ) ;
#239 = EDGE_CURVE ( 'NONE', #236, #995, #1091, .T. ) ;
#240 = DIRECTION ( 'NONE',  ( 3.469446951953614682E-16, -0.0000000000000000000, -1.000000000000000000 ) ) ;
#241 = CARTESIAN_POINT ( 'NONE',  ( -1.000000000000000000, 1.449999999999999956, -0.5749999999999998446 ) ) ;
#242 = STYLED_ITEM ( 'NONE', ( #829 ), #365 ) ;
#243 = CARTESIAN_POINT ( 'NONE',  ( 500000.0000000000582, 0.04999999999999991257, 0.5749999999566317577 ) ) ;
#244 = EDGE_LOOP ( 'NONE', ( #455, #824, #499, #777 ) ) ;
#245 = CARTESIAN_POINT ( 'NONE',  ( -0.4949999999999995515, 1.399999999999999911, 0.5749999999999998446 ) ) ;
#246 = ORIENTED_EDGE ( 'NONE', *, *, #608, .T. ) ;
#247 = LINE ( 'NONE', #568, #805 ) ;
#248 = EDGE_LOOP ( 'NONE', ( #1211, #1027, #651 ) ) ;
#249 = DIRECTION ( 'NONE',  ( -1.000000000000000000, 0.0000000000000000000, -1.734723475976807341E-16 ) ) ;
#250 = ORIENTED_EDGE ( 'NONE', *, *, #300, .F. ) ;
#251 = ORIENTED_EDGE ( 'NONE', *, *, #478, .F. ) ;
#252 = CARTESIAN_POINT ( 'NONE',  ( -0.9999999999999995559, 0.04999999999999991257, 0.5749999999999998446 ) ) ;
#253 = ORIENTED_EDGE ( 'NONE', *, *, #934, .T. ) ;
#254 = ADVANCED_FACE ( 'NONE', ( #792 ), #1036, .F. ) ;
#255 = DIRECTION ( 'NONE',  ( -1.000000000000000000, 0.0000000000000000000, 0.0000000000000000000 ) ) ;
#256 = CARTESIAN_POINT ( 'NONE',  ( -1.000000000000000000, 0.04999999999999991257, -0.6249999999999998890 ) ) ;
#257 = EDGE_CURVE ( 'NONE', #24, #107, #1199, .T. ) ;
#258 = DIRECTION ( 'NONE',  ( 0.0000000000000000000, 0.0000000000000000000, -1.000000000000000000 ) ) ;
#259 = DIRECTION ( 'NONE',  ( -3.469446951953614682E-16, 0.0000000000000000000, 1.000000000000000000 ) ) ;
#260 = AXIS2_PLACEMENT_3D ( 'NONE', #433, #798, #136 ) ;
#261 = DIRECTION ( 'NONE',  ( -1.000000000000000000, 0.0000000000000000000, 0.0000000000000000000 ) ) ;
#262 = DIRECTION ( 'NONE',  ( -1.000000000000000000, -0.0000000000000000000, -0.0000000000000000000 ) ) ;
#263 = VECTOR ( 'NONE', #1142, 1000.000000000000000 ) ;
#264 = VERTEX_POINT ( 'NONE', #352 ) ;
#265 = EDGE_CURVE ( 'NONE', #1136, #589, #25, .T. ) ;
#266 = LINE ( 'NONE', #893, #1272 ) ;
#267 = ORIENTED_EDGE ( 'NONE', *, *, #1221, .T. ) ;
#268 = CARTESIAN_POINT ( 'NONE',  ( -0.4949999999999994404, 0.04999999999999991257, 0.5749999999999998446 ) ) ;
#269 =( GEOMETRIC_REPRESENTATION_CONTEXT ( 3 ) GLOBAL_UNCERTAINTY_ASSIGNED_CONTEXT ( ( #707 ) ) GLOBAL_UNIT_ASSIGNED_CONTEXT ( ( #1246, #738, #938 ) ) REPRESENTATION_CONTEXT ( 'NONE', 'WORKASPACE' ) );
#270 = UNCERTAINTY_MEASURE_WITH_UNIT (LENGTH_MEASURE( 1.000000000000000082E-05 ), #404, 'distance_accuracy_value', 'NONE');
#271 = CARTESIAN_POINT ( 'NONE',  ( 0.0000000000000000000, 1.399999999999999911, -0.5749999999999998446 ) ) ;
#272 = DIRECTION ( 'NONE',  ( -3.469446951953614682E-16, 0.0000000000000000000, 1.000000000000000000 ) ) ;
#273 = PLANE ( 'NONE',  #482 ) ;
#274 = CARTESIAN_POINT ( 'NONE',  ( -1.000000000000000000, 1.449999999999999956, -0.6249999999999998890 ) ) ;
#275 = ADVANCED_FACE ( 'NONE', ( #502 ), #51, .F. ) ;
#276 = LINE ( 'NONE', #864, #1254 ) ;
#277 = ORIENTED_EDGE ( 'NONE', *, *, #1264, .F. ) ;
#278 = VECTOR ( 'NONE', #803, 1000.000000000000000 ) ;
#279 = ORIENTED_EDGE ( 'NONE', *, *, #1039, .F. ) ;
#280 = VERTEX_POINT ( 'NONE', #1235 ) ;
#281 = ORIENTED_EDGE ( 'NONE', *, *, #1264, .T. ) ;
#282 = EDGE_CURVE ( 'NONE', #1090, #444, #456, .T. ) ;
#283 = ORIENTED_EDGE ( 'NONE', *, *, #1039, .T. ) ;
#284 = DIRECTION ( 'NONE',  ( 1.000000000000000000, 0.0000000000000000000, 0.0000000000000000000 ) ) ;
#285 = FILL_AREA_STYLE_COLOUR ( '', #1278 ) ;
#286 = AXIS2_PLACEMENT_3D ( 'NONE', #428, #799, #129 ) ;
#287 = CARTESIAN_POINT ( 'NONE',  ( -0.4949999999999994404, 1.433333333333333348, 0.5749999999999996225 ) ) ;
#288 = DIRECTION ( 'NONE',  ( 0.0000000000000000000, 0.0000000000000000000, 1.000000000000000000 ) ) ;
#289 = DIRECTION ( 'NONE',  ( 1.000000000000000000, 0.0000000000000000000, 0.0000000000000000000 ) ) ;
#290 = EDGE_CURVE ( 'NONE', #1115, #353, #706, .T. ) ;
#291 = ADVANCED_FACE ( 'NONE', ( #225 ), #812, .F. ) ;
#292 = PLANE ( 'NONE',  #391 ) ;
#293 = AXIS2_PLACEMENT_3D ( 'NONE', #621, #255, #1232 ) ;
#294 = ORIENTED_EDGE ( 'NONE', *, *, #308, .F. ) ;
#295 = CYLINDRICAL_SURFACE ( 'NONE', #350, 0.05000000000000002359 ) ;
#296 = VERTEX_POINT ( 'NONE', #161 ) ;
#297 = LINE ( 'NONE', #1101, #278 ) ;
#298 = SPHERICAL_SURFACE ( 'NONE', #769, 0.05000000000000000278 ) ;
#299 = DIRECTION ( 'NONE',  ( 0.0000000000000000000, -1.000000000000000000, -0.0000000000000000000 ) ) ;
#300 = EDGE_CURVE ( 'NONE', #314, #213, #1231, .T. ) ;
#301 = CARTESIAN_POINT ( 'NONE',  ( -0.9499999999999995115, 1.449999999999999956, 0.5749999999999998446 ) ) ;
#302 = AXIS2_PLACEMENT_3D ( 'NONE', #709, #1125, #139 ) ;
#303 = DIRECTION ( 'NONE',  ( -1.000000000000000000, 0.0000000000000000000, 0.0000000000000000000 ) ) ;
#304 = ADVANCED_FACE ( 'NONE', ( #860 ), #98, .T. ) ;
#305 = AXIS2_PLACEMENT_3D ( 'NONE', #268, #632, #731 ) ;
#306 = CYLINDRICAL_SURFACE ( 'NONE', #684, 0.05000000000000002359 ) ;
#307 = DIRECTION ( 'NONE',  ( -3.469446951953614682E-16, 0.0000000000000000000, -1.000000000000000000 ) ) ;
#308 = EDGE_CURVE ( 'NONE', #1136, #213, #207, .T. ) ;
#309 = EDGE_LOOP ( 'NONE', ( #1078, #413, #12, #689 ) ) ;
#310 = DIRECTION ( 'NONE',  ( 1.000000000000000000, 0.0000000000000000000, 3.469446951953615668E-16 ) ) ;
#311 = AXIS2_PLACEMENT_3D ( 'NONE', #940, #833, #1262 ) ;
#312 = FACE_OUTER_BOUND ( 'NONE', #1148, .T. ) ;
#313 = VERTEX_POINT ( 'NONE', #944 ) ;
#314 = VERTEX_POINT ( 'NONE', #378 ) ;
#315 = CLOSED_SHELL ( 'NONE', ( #172, #1217, #143, #889, #291, #700, #275, #56, #559, #1174 ) ) ;
#316 = ADVANCED_FACE ( 'NONE', ( #1097 ), #184, .T. ) ;
#317 = CARTESIAN_POINT ( 'NONE',  ( 0.4950000000008003553, 1.433333333333333348, 0.5749999999999996225 ) ) ;
#318 = DIRECTION ( 'NONE',  ( 1.000000000000000000, -0.0000000000000000000, 1.734723475976807341E-16 ) ) ;
#319 = ORIENTED_EDGE ( 'NONE', *, *, #265, .T. ) ;
#320 = EDGE_CURVE ( 'NONE', #1034, #52, #442, .T. ) ;
#321 = LINE ( 'NONE', #140, #867 ) ;
#322 = FACE_OUTER_BOUND ( 'NONE', #723, .T. ) ;
#323 = DIRECTION ( 'NONE',  ( 0.0000000000000000000, 0.0000000000000000000, -1.000000000000000000 ) ) ;
#324 = VECTOR ( 'NONE', #908, 1000.000000000000000 ) ;
#325 = CIRCLE ( 'NONE', #783, 0.05000000000000002359 ) ;
#326 = DIRECTION ( 'NONE',  ( 0.0000000000000000000, -0.0000000000000000000, -1.000000000000000000 ) ) ;
#327 = ORIENTED_EDGE ( 'NONE', *, *, #1269, .F. ) ;
#328 = EDGE_CURVE ( 'NONE', #24, #1127, #721, .T. ) ;
#329 = CIRCLE ( 'NONE', #431, 0.05000000000000002359 ) ;
#330 = LINE ( 'NONE', #379, #1069 ) ;
#331 =( NAMED_UNIT ( * ) PLANE_ANGLE_UNIT ( ) SI_UNIT ( $, .RADIAN. ) );
#332 = CARTESIAN_POINT ( 'NONE',  ( 0.9499999999999999556, 1.449999999999999956, -0.6249999999999998890 ) ) ;
#333 = ORIENTED_EDGE ( 'NONE', *, *, #62, .T. ) ;
#334 = DIRECTION ( 'NONE',  ( 0.0000000000000000000, 0.0000000000000000000, 1.000000000000000000 ) ) ;
#335 = ORIENTED_EDGE ( 'NONE', *, *, #6, .T. ) ;
#336 = DIRECTION ( 'NONE',  ( 0.0000000000000000000, 0.0000000000000000000, 1.000000000000000000 ) ) ;
#337 = ORIENTED_EDGE ( 'NONE', *, *, #1182, .T. ) ;
#338 = VECTOR ( 'NONE', #367, 1000.000000000000000 ) ;
#339 = CARTESIAN_POINT ( 'NONE',  ( 0.9999999999999995559, 1.399999999999999911, 0.5749999999999998446 ) ) ;
#340 = ORIENTED_EDGE ( 'NONE', *, *, #328, .F. ) ;
#341 = ORIENTED_EDGE ( 'NONE', *, *, #804, .T. ) ;
#342 = ORIENTED_EDGE ( 'NONE', *, *, #146, .T. ) ;
#343 = DIRECTION ( 'NONE',  ( -1.000000000000000000, -0.0000000000000000000, 8.673617379884036705E-17 ) ) ;
#344 = DIRECTION ( 'NONE',  ( 0.0000000000000000000, 0.0000000000000000000, 1.000000000000000000 ) ) ;
#345 = DIRECTION ( 'NONE',  ( -1.000000000000000000, 0.0000000000000000000, 0.0000000000000000000 ) ) ;
#346 = CARTESIAN_POINT ( 'NONE',  ( 0.4949999999999995515, 0.04999999999999991257, 0.5749999999999998446 ) ) ;
#347 = EDGE_CURVE ( 'NONE', #563, #1275, #691, .T. ) ;
#348 = DIRECTION ( 'NONE',  ( 0.0000000000000000000, 1.000000000000000000, 0.0000000000000000000 ) ) ;
#349 = CARTESIAN_POINT ( 'NONE',  ( 500000.0000000000582, 0.04999999999999991951, -0.6083333333767013684 ) ) ;
#350 = AXIS2_PLACEMENT_3D ( 'NONE', #486, #392, #1261 ) ;
#351 = CARTESIAN_POINT ( 'NONE',  ( -0.9499999999999995115, 1.399999999999999911, 0.5749999999999998446 ) ) ;
#352 = CARTESIAN_POINT ( 'NONE',  ( -1.000000000000000000, 0.04999999999999991257, -0.5749999999999998446 ) ) ;
#353 = VERTEX_POINT ( 'NONE', #1155 ) ;
#354 = DIRECTION ( 'NONE',  ( 1.000000000000000000, 0.0000000000000000000, -8.673617379884037937E-17 ) ) ;
#355 = EDGE_CURVE ( 'NONE', #399, #1238, #469, .T. ) ;
#356 = LINE ( 'NONE', #668, #37 ) ;
#357 = SPHERICAL_SURFACE ( 'NONE', #698, 0.05000000000000000278 ) ;
#358 = ORIENTED_EDGE ( 'NONE', *, *, #1061, .F. ) ;
#359 = CARTESIAN_POINT ( 'NONE',  ( 1.000000000000000000, 1.399999999999999911, -0.5749999999999998446 ) ) ;
#360 = ORIENTED_EDGE ( 'NONE', *, *, #1024, .T. ) ;
#361 = EDGE_LOOP ( 'NONE', ( #497, #118, #552, #1201 ) ) ;
#362 = PRESENTATION_LAYER_ASSIGNMENT (  '', '', ( #130 ) ) ;
#363 = DIRECTION ( 'NONE',  ( 1.000000000000000000, 0.0000000000000000000, 0.0000000000000000000 ) ) ;
#364 = EDGE_CURVE ( 'NONE', #48, #596, #163, .T. ) ;
#365 = MANIFOLD_SOLID_BREP ( 'Boss-Extrude2', #315 ) ;
#366 = VECTOR ( 'NONE', #848, 1000.000000000000000 ) ;
#367 = DIRECTION ( 'NONE',  ( -0.0000000000000000000, 1.000000000000000000, -0.0000000000000000000 ) ) ;
#368 = CARTESIAN_POINT ( 'NONE',  ( -0.4949999999999994404, 0.04999999999999991257, 0.6083333333333332815 ) ) ;
#369 = ORIENTED_EDGE ( 'NONE', *, *, #196, .T. ) ;
#370 = CIRCLE ( 'NONE', #14, 0.05000000000000002359 ) ;
#371 = EDGE_CURVE ( 'NONE', #213, #971, #613, .T. ) ;
#372 = FACE_OUTER_BOUND ( 'NONE', #598, .T. ) ;
#373 = VERTEX_POINT ( 'NONE', #1050 ) ;
#374 = CARTESIAN_POINT ( 'NONE',  ( -1.000000000000000000, 1.399999999999999911, -0.6249999999999998890 ) ) ;
#375 = ORIENTED_EDGE ( 'NONE', *, *, #584, .T. ) ;
#376 = DIRECTION ( 'NONE',  ( 0.0000000000000000000, 0.0000000000000000000, -1.000000000000000000 ) ) ;
#377 = DIRECTION ( 'NONE',  ( 1.734723475976807341E-16, 0.0000000000000000000, 1.000000000000000000 ) ) ;
#378 = CARTESIAN_POINT ( 'NONE',  ( -0.9499999999999995115, 0.0000000000000000000, 0.5749999999999998446 ) ) ;
#379 = CARTESIAN_POINT ( 'NONE',  ( -0.9999999999999995559, 0.04999999999999991257, 0.6249999999999998890 ) ) ;
#380 = ORIENTED_EDGE ( 'NONE', *, *, #1024, .F. ) ;
#381 = CARTESIAN_POINT ( 'NONE',  ( 500000.0000000000582, 0.01666666666666662133, 0.5749999999566316466 ) ) ;
#382 = SURFACE_STYLE_FILL_AREA ( #983 ) ;
#383 = DIRECTION ( 'NONE',  ( 1.000000000000000000, -0.0000000000000000000, 1.734723475976807341E-16 ) ) ;
#384 = CIRCLE ( 'NONE', #474, 0.05000000000000002359 ) ;
#385 = DIRECTION ( 'NONE',  ( 0.0000000000000000000, 1.000000000000000000, 0.0000000000000000000 ) ) ;
#386 = VECTOR ( 'NONE', #1118, 1000.000000000000000 ) ;
#387 = EDGE_CURVE ( 'NONE', #595, #17, #1021, .T. ) ;
#388 = CARTESIAN_POINT ( 'NONE',  ( -0.4949999999999993294, 0.0000000000000000000, -0.5749999999999998446 ) ) ;
#389 = PLANE ( 'NONE',  #894 ) ;
#390 = DIRECTION ( 'NONE',  ( -1.000000000000000000, 0.0000000000000000000, -0.0000000000000000000 ) ) ;
#391 = AXIS2_PLACEMENT_3D ( 'NONE', #100, #194, #1053 ) ;
#392 = DIRECTION ( 'NONE',  ( 1.000000000000000000, 0.0000000000000000000, 0.0000000000000000000 ) ) ;
#393 = DIRECTION ( 'NONE',  ( -0.0000000000000000000, -0.0000000000000000000, -1.000000000000000000 ) ) ;
#394 = EDGE_CURVE ( 'NONE', #444, #8, #206, .T. ) ;
#395 = CARTESIAN_POINT ( 'NONE',  ( -0.9499999999999997335, 1.399999999999999911, 3.295974604355932986E-16 ) ) ;
#396 = AXIS2_PLACEMENT_3D ( 'NONE', #81, #1163, #284 ) ;
#397 = VECTOR ( 'NONE', #145, 1000.000000000000000 ) ;
#398 = ORIENTED_EDGE ( 'NONE', *, *, #529, .T. ) ;
#399 = VERTEX_POINT ( 'NONE', #960 ) ;
#400 = EDGE_CURVE ( 'NONE', #1275, #1020, #943, .T. ) ;
#401 = CARTESIAN_POINT ( 'NONE',  ( -0.4949999999999994404, 1.399999999999999911, 0.6083333333333332815 ) ) ;
#402 = ADVANCED_FACE ( 'NONE', ( #403 ), #494, .T. ) ;
#403 = FACE_OUTER_BOUND ( 'NONE', #713, .T. ) ;
#404 =( LENGTH_UNIT ( ) NAMED_UNIT ( * ) SI_UNIT ( .MILLI., .METRE. ) );
#405 = DIRECTION ( 'NONE',  ( 0.0000000000000000000, -1.000000000000000000, 0.0000000000000000000 ) ) ;
#406 = EDGE_CURVE ( 'NONE', #314, #789, #329, .T. ) ;
#407 = ORIENTED_EDGE ( 'NONE', *, *, #1103, .T. ) ;
#408 = AXIS2_PLACEMENT_3D ( 'NONE', #164, #1230, #931 ) ;
#409 = LINE ( 'NONE', #449, #852 ) ;
#410 = LINE ( 'NONE', #332, #767 ) ;
#411 = CIRCLE ( 'NONE', #914, 0.05000000000000002359 ) ;
#412 = VECTOR ( 'NONE', #458, 1000.000000000000000 ) ;
#413 = ORIENTED_EDGE ( 'NONE', *, *, #873, .F. ) ;
#414 = ORIENTED_EDGE ( 'NONE', *, *, #364, .T. ) ;
#415 = EDGE_CURVE ( 'NONE', #982, #296, #981, .T. ) ;
#416 = DIRECTION ( 'NONE',  ( 0.0000000000000000000, -1.000000000000000000, 0.0000000000000000000 ) ) ;
#417 = AXIS2_PLACEMENT_3D ( 'NONE', #447, #930, #363 ) ;
#418 = CARTESIAN_POINT ( 'NONE',  ( -0.4949999999999993294, 1.399999999999999911, -0.6249999999999998890 ) ) ;
#419 = APPLICATION_PROTOCOL_DEFINITION ( 'draft international standard', 'automotive_design', 1998, #506 ) ;
#420 = CARTESIAN_POINT ( 'NONE',  ( -0.9499999999999999556, 1.449999999999999956, -0.5749999999999998446 ) ) ;
#421 = ORIENTED_EDGE ( 'NONE', *, *, #1051, .F. ) ;
#422 = ORIENTED_EDGE ( 'NONE', *, *, #993, .F. ) ;
#423 = SURFACE_STYLE_FILL_AREA ( #611 ) ;
#424 = CARTESIAN_POINT ( 'NONE',  ( -0.9999999999999995559, 0.04999999999999991257, 0.5749999999999998446 ) ) ;
#425 = CARTESIAN_POINT ( 'NONE',  ( -0.9499999999999995115, 0.04999999999999991257, 0.6249999999999998890 ) ) ;
#426 = CARTESIAN_POINT ( 'NONE',  ( -0.9499999999999999556, 1.399999999999999911, -0.5749999999999998446 ) ) ;
#427 = EDGE_CURVE ( 'NONE', #188, #1020, #749, .T. ) ;
#428 = CARTESIAN_POINT ( 'NONE',  ( 0.9499999999999999556, 1.399999999999999911, -0.5749999999999998446 ) ) ;
#429 = DIRECTION ( 'NONE',  ( -1.000000000000000000, 0.0000000000000000000, 0.0000000000000000000 ) ) ;
#430 = DIRECTION ( 'NONE',  ( 1.000000000000000000, 0.0000000000000000000, 0.0000000000000000000 ) ) ;
#431 = AXIS2_PLACEMENT_3D ( 'NONE', #105, #393, #481 ) ;
#432 = ADVANCED_FACE ( 'NONE', ( #648 ), #571, .F. ) ;
#433 = CARTESIAN_POINT ( 'NONE',  ( -0.4949999999999993294, 1.399999999999999911, -0.5749999999999998446 ) ) ;
#434 = SURFACE_STYLE_USAGE ( .BOTH. , #715 ) ;
#435 = LINE ( 'NONE', #1214, #672 ) ;
#436 = DIRECTION ( 'NONE',  ( -1.000000000000000000, -0.0000000000000000000, -0.0000000000000000000 ) ) ;
#437 = CYLINDRICAL_SURFACE ( 'NONE', #945, 0.05000000000000002359 ) ;
#438 = FACE_OUTER_BOUND ( 'NONE', #545, .T. ) ;
#439 = AXIS2_PLACEMENT_3D ( 'NONE', #905, #436, #142 ) ;
#440 = LINE ( 'NONE', #708, #543 ) ;
#441 = ORIENTED_EDGE ( 'NONE', *, *, #6, .F. ) ;
#442 = CIRCLE ( 'NONE', #1144, 0.03333333333333334675 ) ;
#443 = ORIENTED_EDGE ( 'NONE', *, *, #347, .T. ) ;
#444 = VERTEX_POINT ( 'NONE', #1169 ) ;
#445 = CARTESIAN_POINT ( 'NONE',  ( 500000.0000000000582, 0.04999999999999991257, -0.5750000000433679315 ) ) ;
#446 = AXIS2_PLACEMENT_3D ( 'NONE', #756, #476, #1168 ) ;
#447 = CARTESIAN_POINT ( 'NONE',  ( 0.9999999999999995559, 1.449999999999999956, 0.6249999999999998890 ) ) ;
#448 = EDGE_CURVE ( 'NONE', #581, #159, #986, .T. ) ;
#449 = CARTESIAN_POINT ( 'NONE',  ( 0.9499999999999995115, 1.449999999999999956, 0.6249999999999998890 ) ) ;
#450 = ADVANCED_FACE ( 'NONE', ( #863 ), #1037, .T. ) ;
#451 = AXIS2_PLACEMENT_3D ( 'NONE', #395, #307, #977 ) ;
#452 = UNCERTAINTY_MEASURE_WITH_UNIT (LENGTH_MEASURE( 1.000000000000000082E-05 ), #714, 'distance_accuracy_value', 'NONE');
#453 = LINE ( 'NONE', #643, #1192 ) ;
#454 = CYLINDRICAL_SURFACE ( 'NONE', #80, 0.05000000000000002359 ) ;
#455 = ORIENTED_EDGE ( 'NONE', *, *, #126, .T. ) ;
#456 = CIRCLE ( 'NONE', #1026, 0.05000000000000002359 ) ;
#457 = DIRECTION ( 'NONE',  ( 0.0000000000000000000, 0.0000000000000000000, 1.000000000000000000 ) ) ;
#458 = DIRECTION ( 'NONE',  ( 1.734723475976807341E-16, -0.0000000000000000000, -1.000000000000000000 ) ) ;
#459 = AXIS2_PLACEMENT_3D ( 'NONE', #901, #604, #601 ) ;
#460 = VERTEX_POINT ( 'NONE', #966 ) ;
#461 = CARTESIAN_POINT ( 'NONE',  ( -1.000000000000000000, 1.449999999999999956, -0.6249999999999998890 ) ) ;
#462 = LINE ( 'NONE', #682, #1044 ) ;
#463 = ORIENTED_EDGE ( 'NONE', *, *, #634, .F. ) ;
#464 = EDGE_CURVE ( 'NONE', #8, #947, #1164, .T. ) ;
#465 = LINE ( 'NONE', #928, #54 ) ;
#466 = VECTOR ( 'NONE', #343, 1000.000000000000000 ) ;
#467 = CARTESIAN_POINT ( 'NONE',  ( -0.9499999999999995115, 1.399999999999999911, 0.5749999999999998446 ) ) ;
#468 = ORIENTED_EDGE ( 'NONE', *, *, #584, .F. ) ;
#469 = LINE ( 'NONE', #741, #975 ) ;
#470 = ORIENTED_EDGE ( 'NONE', *, *, #1229, .F. ) ;
#471 = ORIENTED_EDGE ( 'NONE', *, *, #652, .F. ) ;
#472 = DIRECTION ( 'NONE',  ( 0.0000000000000000000, 1.000000000000000000, 0.0000000000000000000 ) ) ;
#473 = ORIENTED_EDGE ( 'NONE', *, *, #652, .T. ) ;
#474 = AXIS2_PLACEMENT_3D ( 'NONE', #635, #924, #64 ) ;
#475 = CARTESIAN_POINT ( 'NONE',  ( -0.4949999999999994404, 0.04999999999999991951, -0.6083333333333332815 ) ) ;
#476 = DIRECTION ( 'NONE',  ( -1.000000000000000000, -0.0000000000000000000, 8.673617379884036705E-17 ) ) ;
#477 = CARTESIAN_POINT ( 'NONE',  ( -0.4949999999999995515, 1.449999999999999956, 0.6249999999999998890 ) ) ;
#478 = EDGE_CURVE ( 'NONE', #871, #596, #150, .T. ) ;
#479 = CARTESIAN_POINT ( 'NONE',  ( -0.9499999999999999556, 1.449999999999999956, -0.5749999999999998446 ) ) ;
#480 = DIRECTION ( 'NONE',  ( 0.0000000000000000000, -1.000000000000000000, 0.0000000000000000000 ) ) ;
#481 = DIRECTION ( 'NONE',  ( 1.000000000000000000, 0.0000000000000000000, 0.0000000000000000000 ) ) ;
#482 = AXIS2_PLACEMENT_3D ( 'NONE', #956, #649, #377 ) ;
#483 = STYLED_ITEM ( 'NONE', ( #199 ), #1178 ) ;
#484 = EDGE_LOOP ( 'NONE', ( #1190, #267, #59, #578 ) ) ;
#485 = ORIENTED_EDGE ( 'NONE', *, *, #371, .F. ) ;
#486 = CARTESIAN_POINT ( 'NONE',  ( 0.0000000000000000000, 1.399999999999999911, -0.5749999999999998446 ) ) ;
#487 = SPHERICAL_SURFACE ( 'NONE', #874, 0.05000000000000000278 ) ;
#488 = ORIENTED_EDGE ( 'NONE', *, *, #951, .F. ) ;
#489 = EDGE_LOOP ( 'NONE', ( #148, #513, #1184 ) ) ;
#490 = DIRECTION ( 'NONE',  ( 0.0000000000000000000, -1.000000000000000000, 0.0000000000000000000 ) ) ;
#491 = PRESENTATION_LAYER_ASSIGNMENT (  '', '', ( #570 ) ) ;
#492 = ADVANCED_FACE ( 'NONE', ( #1121 ), #1226, .T. ) ;
#493 = EDGE_CURVE ( 'NONE', #236, #1115, #515, .T. ) ;
#494 = CYLINDRICAL_SURFACE ( 'NONE', #835, 0.05000000000000002359 ) ;
#495 = DIRECTION ( 'NONE',  ( -1.000000000000000000, 0.0000000000000000000, 0.0000000000000000000 ) ) ;
#496 = SURFACE_SIDE_STYLE ('',( #382 ) ) ;
#497 = ORIENTED_EDGE ( 'NONE', *, *, #300, .T. ) ;
#498 = FACE_OUTER_BOUND ( 'NONE', #753, .T. ) ;
#499 = ORIENTED_EDGE ( 'NONE', *, *, #212, .T. ) ;
#500 = EDGE_LOOP ( 'NONE', ( #375, #369, #564, #629 ) ) ;
#501 = EDGE_LOOP ( 'NONE', ( #67, #575, #179, #277 ) ) ;
#502 = FACE_OUTER_BOUND ( 'NONE', #801, .T. ) ;
#503 = ORIENTED_EDGE ( 'NONE', *, *, #832, .F. ) ;
#504 = AXIS2_PLACEMENT_3D ( 'NONE', #638, #846, #177 ) ;
#505 = DIRECTION ( 'NONE',  ( 3.469446951953614682E-16, 0.0000000000000000000, -1.000000000000000000 ) ) ;
#506 = APPLICATION_CONTEXT ( 'automotive_design' ) ;
#507 = ORIENTED_EDGE ( 'NONE', *, *, #320, .F. ) ;
#508 = DIRECTION ( 'NONE',  ( 0.0000000000000000000, 1.000000000000000000, 0.0000000000000000000 ) ) ;
#509 = AXIS2_PLACEMENT_3D ( 'NONE', #211, #508, #1096 ) ;
#510 = LINE ( 'NONE', #534, #338 ) ;
#511 = ORIENTED_EDGE ( 'NONE', *, *, #265, .F. ) ;
#512 = ORIENTED_EDGE ( 'NONE', *, *, #157, .T. ) ;
#513 = ORIENTED_EDGE ( 'NONE', *, *, #32, .T. ) ;
#514 = CARTESIAN_POINT ( 'NONE',  ( 0.4950000000008003553, 1.399999999999999911, -0.6083333333333332815 ) ) ;
#515 = CIRCLE ( 'NONE', #991, 0.05000000000000002359 ) ;
#516 = DIRECTION ( 'NONE',  ( -1.000000000000000000, 0.0000000000000000000, 0.0000000000000000000 ) ) ;
#517 = CARTESIAN_POINT ( 'NONE',  ( 0.4949999999999993294, 1.449999999999999956, -0.5749999999999998446 ) ) ;
#518 = DIRECTION ( 'NONE',  ( 1.000000000000000000, 0.0000000000000000000, -1.734723475976807341E-16 ) ) ;
#519 = CARTESIAN_POINT ( 'NONE',  ( 500000.0000000000582, 0.01666666666666666644, -0.5750000000433678204 ) ) ;
#520 = CARTESIAN_POINT ( 'NONE',  ( 0.9999999999999995559, 0.04999999999999991257, 0.5749999999999998446 ) ) ;
#521 = FACE_OUTER_BOUND ( 'NONE', #1197, .T. ) ;
#522 = LINE ( 'NONE', #241, #1132 ) ;
#523 = EDGE_LOOP ( 'NONE', ( #507, #886, #503, #957, #221, #1018, #627, #41 ) ) ;
#524 = FACE_OUTER_BOUND ( 'NONE', #836, .T. ) ;
#525 = EDGE_LOOP ( 'NONE', ( #1227, #569, #473, #733 ) ) ;
#526 = DIRECTION ( 'NONE',  ( 0.0000000000000000000, 0.0000000000000000000, 1.000000000000000000 ) ) ;
#527 = DIRECTION ( 'NONE',  ( 0.0000000000000000000, 0.0000000000000000000, 1.000000000000000000 ) ) ;
#528 = VECTOR ( 'NONE', #766, 1000.000000000000000 ) ;
#529 = EDGE_CURVE ( 'NONE', #107, #579, #659, .T. ) ;
#530 = DIRECTION ( 'NONE',  ( 0.0000000000000000000, 0.0000000000000000000, -1.000000000000000000 ) ) ;
#531 = DIRECTION ( 'NONE',  ( -3.469446951953614682E-16, 0.0000000000000000000, -1.000000000000000000 ) ) ;
#532 = DIRECTION ( 'NONE',  ( 0.0000000000000000000, 0.0000000000000000000, 1.000000000000000000 ) ) ;
#533 = AXIS2_PLACEMENT_3D ( 'NONE', #558, #755, #1248 ) ;
#534 = CARTESIAN_POINT ( 'NONE',  ( 0.9999999999999995559, 1.449999999999999956, 0.5749999999999997335 ) ) ;
#535 = ADVANCED_FACE ( 'NONE', ( #671 ), #989, .T. ) ;
#536 = DIRECTION ( 'NONE',  ( 1.000000000000000000, -0.0000000000000000000, 1.734723475976807341E-16 ) ) ;
#537 = PLANE ( 'NONE',  #35 ) ;
#538 = EDGE_CURVE ( 'NONE', #595, #1138, #1068, .T. ) ;
#539 = ADVANCED_FACE ( 'NONE', ( #202 ), #357, .T. ) ;
#540 = CARTESIAN_POINT ( 'NONE',  ( 0.4949999999999995515, 1.399999999999999911, 0.6249999999999998890 ) ) ;
#541 = ORIENTED_EDGE ( 'NONE', *, *, #941, .F. ) ;
#542 = FACE_OUTER_BOUND ( 'NONE', #309, .T. ) ;
#543 = VECTOR ( 'NONE', #1014, 1000.000000000000000 ) ;
#544 = ORIENTED_EDGE ( 'NONE', *, *, #347, .F. ) ;
#545 = EDGE_LOOP ( 'NONE', ( #337, #580, #856 ) ) ;
#546 = CARTESIAN_POINT ( 'NONE',  ( -0.4949999999999993294, 1.449999999999999956, -0.6249999999999998890 ) ) ;
#547 = SURFACE_STYLE_USAGE ( .BOTH. , #932 ) ;
#548 = LINE ( 'NONE', #475, #31 ) ;
#549 =( GEOMETRIC_REPRESENTATION_CONTEXT ( 3 ) GLOBAL_UNCERTAINTY_ASSIGNED_CONTEXT ( ( #933 ) ) GLOBAL_UNIT_ASSIGNED_CONTEXT ( ( #1000, #1122, #697 ) ) REPRESENTATION_CONTEXT ( 'NONE', 'WORKASPACE' ) );
#550 = DIRECTION ( 'NONE',  ( 0.0000000000000000000, 1.000000000000000000, -0.0000000000000000000 ) ) ;
#551 = EDGE_CURVE ( 'NONE', #213, #264, #1062, .T. ) ;
#552 = ORIENTED_EDGE ( 'NONE', *, *, #62, .F. ) ;
#553 = CARTESIAN_POINT ( 'NONE',  ( 0.4950000000008003553, 1.433333333333333348, -0.5749999999566318687 ) ) ;
#554 = LINE ( 'NONE', #759, #701 ) ;
#555 = ORIENTED_EDGE ( 'NONE', *, *, #742, .T. ) ;
#556 = CYLINDRICAL_SURFACE ( 'NONE', #293, 0.05000000000000002359 ) ;
#557 = DIRECTION ( 'NONE',  ( 1.000000000000000000, 0.0000000000000000000, -8.673617379884036705E-17 ) ) ;
#558 = CARTESIAN_POINT ( 'NONE',  ( 0.4950000000008003553, 0.04999999999999991257, -0.5749999999999998446 ) ) ;
#559 = ADVANCED_FACE ( 'NONE', ( #94 ), #585, .F. ) ;
#560 = ORIENTED_EDGE ( 'NONE', *, *, #634, .T. ) ;
#561 = DIRECTION ( 'NONE',  ( 0.0000000000000000000, 0.0000000000000000000, 1.000000000000000000 ) ) ;
#562 = CARTESIAN_POINT ( 'NONE',  ( 0.9499999999999995115, 0.04999999999999991257, 0.5749999999999998446 ) ) ;
#563 = VERTEX_POINT ( 'NONE', #317 ) ;
#564 = ORIENTED_EDGE ( 'NONE', *, *, #529, .F. ) ;
#565 = CYLINDRICAL_SURFACE ( 'NONE', #607, 0.03333333333333324267 ) ;
#566 = LINE ( 'NONE', #519, #466 ) ;
#567 = ORIENTED_EDGE ( 'NONE', *, *, #448, .T. ) ;
#568 = CARTESIAN_POINT ( 'NONE',  ( -1.000000000000000000, 0.04999999999999991257, -0.6249999999999998890 ) ) ;
#569 = ORIENTED_EDGE ( 'NONE', *, *, #1126, .T. ) ;
#570 = STYLED_ITEM ( 'NONE', ( #916 ), #761 ) ;
#571 = PLANE ( 'NONE',  #1170 ) ;
#572 = VECTOR ( 'NONE', #92, 1000.000000000000000 ) ;
#573 = DIRECTION ( 'NONE',  ( -1.734723475976807341E-16, 0.0000000000000000000, -1.000000000000000000 ) ) ;
#574 = AXIS2_PLACEMENT_3D ( 'NONE', #245, #536, #344 ) ;
#575 = ORIENTED_EDGE ( 'NONE', *, *, #1204, .F. ) ;
#576 = DIRECTION ( 'NONE',  ( 1.000000000000000000, -0.0000000000000000000, -0.0000000000000000000 ) ) ;
#577 = LINE ( 'NONE', #110, #593 ) ;
#578 = ORIENTED_EDGE ( 'NONE', *, *, #681, .F. ) ;
#579 = VERTEX_POINT ( 'NONE', #695 ) ;
#580 = ORIENTED_EDGE ( 'NONE', *, *, #1051, .T. ) ;
#581 = VERTEX_POINT ( 'NONE', #418 ) ;
#582 = CARTESIAN_POINT ( 'NONE',  ( -0.9499999999999999556, 0.05000000000000000278, -0.5749999999999998446 ) ) ;
#583 = PRESENTATION_LAYER_ASSIGNMENT (  '', '', ( #483 ) ) ;
#584 = EDGE_CURVE ( 'NONE', #640, #72, #577, .T. ) ;
#585 = PLANE ( 'NONE',  #218 ) ;
#586 = AXIS2_PLACEMENT_3D ( 'NONE', #461, #1154, #650 ) ;
#587 = ORIENTED_EDGE ( 'NONE', *, *, #223, .T. ) ;
#588 = ADVANCED_FACE ( 'NONE', ( #122 ), #1186, .F. ) ;
#589 = VERTEX_POINT ( 'NONE', #13 ) ;
#590 = FACE_OUTER_BOUND ( 'NONE', #244, .T. ) ;
#591 = LINE ( 'NONE', #903, #21 ) ;
#592 = EDGE_CURVE ( 'NONE', #1020, #887, #970, .T. ) ;
#593 = VECTOR ( 'NONE', #416, 1000.000000000000000 ) ;
#594 = DIRECTION ( 'NONE',  ( -1.000000000000000000, -0.0000000000000000000, -0.0000000000000000000 ) ) ;
#595 = VERTEX_POINT ( 'NONE', #683 ) ;
#596 = VERTEX_POINT ( 'NONE', #984 ) ;
#597 = ORIENTED_EDGE ( 'NONE', *, *, #394, .T. ) ;
#598 = EDGE_LOOP ( 'NONE', ( #1200, #138, #113, #158 ) ) ;
#599 = AXIS2_PLACEMENT_3D ( 'NONE', #828, #1140, #1124 ) ;
#600 = LINE ( 'NONE', #844, #366 ) ;
#601 = DIRECTION ( 'NONE',  ( -8.673617379884036705E-17, 0.0000000000000000000, -1.000000000000000000 ) ) ;
#602 = CARTESIAN_POINT ( 'NONE',  ( -0.4949999999999994404, 1.433333333333333348, -0.5749999999999998446 ) ) ;
#603 = EDGE_LOOP ( 'NONE', ( #422, #85, #230, #1257 ) ) ;
#604 = DIRECTION ( 'NONE',  ( 1.000000000000000000, 0.0000000000000000000, -8.673617379884036705E-17 ) ) ;
#605 = ADVANCED_FACE ( 'NONE', ( #884 ), #298, .T. ) ;
#606 = CARTESIAN_POINT ( 'NONE',  ( 0.4950000000008003553, 1.399999999999999911, -0.5749999999999998446 ) ) ;
#607 = AXIS2_PLACEMENT_3D ( 'NONE', #445, #737, #457 ) ;
#608 = EDGE_CURVE ( 'NONE', #871, #313, #900, .T. ) ;
#609 = ADVANCED_FACE ( 'NONE', ( #1165 ), #703, .T. ) ;
#610 = ORIENTED_EDGE ( 'NONE', *, *, #84, .F. ) ;
#611 = FILL_AREA_STYLE ('',( #33 ) ) ;
#612 = ORIENTED_EDGE ( 'NONE', *, *, #1182, .F. ) ;
#613 = LINE ( 'NONE', #1173, #780 ) ;
#614 = ADVANCED_FACE ( 'NONE', ( #23 ), #1089, .T. ) ;
#615 = SURFACE_SIDE_STYLE ('',( #879 ) ) ;
#616 = AXIS2_PLACEMENT_3D ( 'NONE', #813, #1212, #527 ) ;
#617 = DIRECTION ( 'NONE',  ( 0.0000000000000000000, -1.000000000000000000, 0.0000000000000000000 ) ) ;
#618 = DIRECTION ( 'NONE',  ( 0.0000000000000000000, 0.0000000000000000000, -1.000000000000000000 ) ) ;
#619 = ADVANCED_FACE ( 'NONE', ( #372 ), #454, .T. ) ;
#620 = CARTESIAN_POINT ( 'NONE',  ( -0.9499999999999999556, 1.399999999999999911, -0.5749999999999998446 ) ) ;
#621 = CARTESIAN_POINT ( 'NONE',  ( 0.9999999999999995559, 0.04999999999999991257, 0.5749999999999998446 ) ) ;
#622 = EDGE_LOOP ( 'NONE', ( #55, #155, #441 ) ) ;
#623 = CARTESIAN_POINT ( 'NONE',  ( 0.4950000000008003553, 0.04999999999999991257, 0.5749999999999998446 ) ) ;
#624 = VECTOR ( 'NONE', #1049, 1000.000000000000000 ) ;
#625 = DIRECTION ( 'NONE',  ( -1.000000000000000000, -0.0000000000000000000, -0.0000000000000000000 ) ) ;
#626 = AXIS2_PLACEMENT_3D ( 'NONE', #115, #1081, #210 ) ;
#627 = ORIENTED_EDGE ( 'NONE', *, *, #427, .F. ) ;
#628 = VECTOR ( 'NONE', #617, 1000.000000000000000 ) ;
#629 = ORIENTED_EDGE ( 'NONE', *, *, #896, .T. ) ;
#630 = ORIENTED_EDGE ( 'NONE', *, *, #400, .T. ) ;
#631 = DIRECTION ( 'NONE',  ( 0.0000000000000000000, 0.0000000000000000000, -1.000000000000000000 ) ) ;
#632 = DIRECTION ( 'NONE',  ( 1.000000000000000000, 0.0000000000000000000, -8.673617379884036705E-17 ) ) ;
#633 = CARTESIAN_POINT ( 'NONE',  ( -0.9499999999999999556, 1.449999999999999956, -0.6249999999999998890 ) ) ;
#634 = EDGE_CURVE ( 'NONE', #581, #1127, #1210, .T. ) ;
#635 = CARTESIAN_POINT ( 'NONE',  ( 0.4949999999999993294, 1.399999999999999911, -0.5749999999999998446 ) ) ;
#636 = ORIENTED_EDGE ( 'NONE', *, *, #355, .T. ) ;
#637 = EDGE_LOOP ( 'NONE', ( #1035, #555, #237, #587 ) ) ;
#638 = CARTESIAN_POINT ( 'NONE',  ( -0.9499999999999999556, 0.04999999999999991257, -0.5749999999999998446 ) ) ;
#639 = FACE_OUTER_BOUND ( 'NONE', #523, .T. ) ;
#640 = VERTEX_POINT ( 'NONE', #787 ) ;
#641 = AXIS2_PLACEMENT_3D ( 'NONE', #1147, #1256, #171 ) ;
#642 = LINE ( 'NONE', #127, #628 ) ;
#643 = CARTESIAN_POINT ( 'NONE',  ( 0.4949999999999993294, 0.0000000000000000000, -0.6249999999999998890 ) ) ;
#644 = FACE_OUTER_BOUND ( 'NONE', #1017, .T. ) ;
#645 = ORIENTED_EDGE ( 'NONE', *, *, #538, .F. ) ;
#646 = CARTESIAN_POINT ( 'NONE',  ( -0.4949999999999993294, 0.04999999999999991257, -0.6249999999999998890 ) ) ;
#647 = DIRECTION ( 'NONE',  ( 0.0000000000000000000, 0.0000000000000000000, 1.000000000000000000 ) ) ;
#648 = FACE_OUTER_BOUND ( 'NONE', #500, .T. ) ;
#649 = DIRECTION ( 'NONE',  ( 1.000000000000000000, 0.0000000000000000000, -1.734723475976807341E-16 ) ) ;
#650 = DIRECTION ( 'NONE',  ( -3.469446951953614682E-16, 0.0000000000000000000, -1.000000000000000000 ) ) ;
#651 = ORIENTED_EDGE ( 'NONE', *, *, #212, .F. ) ;
#652 = EDGE_CURVE ( 'NONE', #995, #1115, #935, .T. ) ;
#653 = EDGE_LOOP ( 'NONE', ( #544, #1113, #1237, #220 ) ) ;
#654 = CIRCLE ( 'NONE', #757, 0.05000000000000002359 ) ;
#655 = LINE ( 'NONE', #1274, #121 ) ;
#656 = CYLINDRICAL_SURFACE ( 'NONE', #1249, 0.05000000000000002359 ) ;
#657 = EDGE_LOOP ( 'NONE', ( #234, #999, #855, #823 ) ) ;
#658 = CARTESIAN_POINT ( 'NONE',  ( -0.9499999999999995115, 1.449999999999999956, 0.6249999999999998890 ) ) ;
#659 = LINE ( 'NONE', #477, #572 ) ;
#660 = AXIS2_PLACEMENT_3D ( 'NONE', #1180, #1279, #677 ) ;
#661 = ORIENTED_EDGE ( 'NONE', *, *, #189, .T. ) ;
#662 = ORIENTED_EDGE ( 'NONE', *, *, #724, .T. ) ;
#663 = CARTESIAN_POINT ( 'NONE',  ( -0.4949999999999993294, 0.04999999999999991257, -0.5749999999999998446 ) ) ;
#664 = CARTESIAN_POINT ( 'NONE',  ( 0.9499999999999999556, 1.399999999999999911, -0.6249999999999998890 ) ) ;
#665 = DIRECTION ( 'NONE',  ( 0.0000000000000000000, 0.0000000000000000000, 1.000000000000000000 ) ) ;
#666 = EDGE_CURVE ( 'NONE', #48, #236, #822, .T. ) ;
#667 = AXIS2_PLACEMENT_3D ( 'NONE', #911, #348, #1022 ) ;
#668 = CARTESIAN_POINT ( 'NONE',  ( 0.4949999999999993294, 1.449999999999999956, -0.6249999999999998890 ) ) ;
#669 = ORIENTED_EDGE ( 'NONE', *, *, #493, .T. ) ;
#670 = EDGE_CURVE ( 'NONE', #995, #1209, #1149, .T. ) ;
#671 = FACE_OUTER_BOUND ( 'NONE', #622, .T. ) ;
#672 = VECTOR ( 'NONE', #1117, 1000.000000000000000 ) ;
#673 = EDGE_LOOP ( 'NONE', ( #1009, #597, #923, #281 ) ) ;
#674 = FACE_OUTER_BOUND ( 'NONE', #1112, .T. ) ;
#675 = ORIENTED_EDGE ( 'NONE', *, *, #796, .T. ) ;
#676 = EDGE_LOOP ( 'NONE', ( #645, #40, #1001 ) ) ;
#677 = DIRECTION ( 'NONE',  ( -1.000000000000000000, 0.0000000000000000000, 0.0000000000000000000 ) ) ;
#678 = EDGE_LOOP ( 'NONE', ( #253, #842, #470 ) ) ;
#679 = DIRECTION ( 'NONE',  ( -1.000000000000000000, 0.0000000000000000000, 0.0000000000000000000 ) ) ;
#680 = AXIS2_PLACEMENT_3D ( 'NONE', #620, #153, #814 ) ;
#681 = EDGE_CURVE ( 'NONE', #280, #52, #215, .T. ) ;
#682 = CARTESIAN_POINT ( 'NONE',  ( 0.0000000000000000000, 0.0000000000000000000, 0.5749999999999998446 ) ) ;
#683 = CARTESIAN_POINT ( 'NONE',  ( 0.9499999999999995115, 0.0000000000000000000, 0.5749999999999998446 ) ) ;
#684 = AXIS2_PLACEMENT_3D ( 'NONE', #178, #176, #1158 ) ;
#685 = ADVANCED_FACE ( 'NONE', ( #952 ), #704, .F. ) ;
#686 = CARTESIAN_POINT ( 'NONE',  ( 0.9499999999999999556, 1.399999999999999911, -0.5749999999999998446 ) ) ;
#687 = CIRCLE ( 'NONE', #739, 0.05000000000000002359 ) ;
#688 = CIRCLE ( 'NONE', #712, 0.03333333333333324267 ) ;
#689 = ORIENTED_EDGE ( 'NONE', *, *, #1092, .F. ) ;
#690 = VECTOR ( 'NONE', #240, 1000.000000000000000 ) ;
#691 = CIRCLE ( 'NONE', #641, 0.03333333333333334675 ) ;
#692 = ORIENTED_EDGE ( 'NONE', *, *, #355, .F. ) ;
#693 = EDGE_LOOP ( 'NONE', ( #1047, #669, #471 ) ) ;
#694 = CARTESIAN_POINT ( 'NONE',  ( 0.9499999999999995115, 0.05000000000000000278, 0.5749999999999998446 ) ) ;
#695 = CARTESIAN_POINT ( 'NONE',  ( -0.4949999999999995515, 0.04999999999999991257, 0.6249999999999998890 ) ) ;
#696 = DIRECTION ( 'NONE',  ( 1.000000000000000000, 0.0000000000000000000, -1.734723475976807341E-16 ) ) ;
#697 =( NAMED_UNIT ( * ) SI_UNIT ( $, .STERADIAN. ) SOLID_ANGLE_UNIT ( ) );
#698 = AXIS2_PLACEMENT_3D ( 'NONE', #694, #405, #891 ) ;
#699 = ORIENTED_EDGE ( 'NONE', *, *, #538, .T. ) ;
#700 = ADVANCED_FACE ( 'NONE', ( #1033 ), #235, .T. ) ;
#701 = VECTOR ( 'NONE', #480, 1000.000000000000000 ) ;
#702 = EDGE_CURVE ( 'NONE', #918, #717, #566, .T. ) ;
#703 = SPHERICAL_SURFACE ( 'NONE', #509, 0.05000000000000000278 ) ;
#704 = PLANE ( 'NONE',  #125 ) ;
#705 = ORIENTED_EDGE ( 'NONE', *, *, #1141, .F. ) ;
#706 = LINE ( 'NONE', #60, #1263 ) ;
#707 = UNCERTAINTY_MEASURE_WITH_UNIT (LENGTH_MEASURE( 1.000000000000000082E-05 ), #1246, 'distance_accuracy_value', 'NONE');
#708 = CARTESIAN_POINT ( 'NONE',  ( 0.4950000000008003553, 0.01666666666666666644, 0.5750000000433677094 ) ) ;
#709 = CARTESIAN_POINT ( 'NONE',  ( -1.000000000000000000, 0.04999999999999991257, -0.5749999999999998446 ) ) ;
#710 = CARTESIAN_POINT ( 'NONE',  ( 0.4950000000008003553, 0.01666666666666662133, 0.5749999999999997335 ) ) ;
#711 = VECTOR ( 'NONE', #1268, 1000.000000000000000 ) ;
#712 = AXIS2_PLACEMENT_3D ( 'NONE', #623, #144, #46 ) ;
#713 = EDGE_LOOP ( 'NONE', ( #826, #36, #111, #1076 ) ) ;
#714 =( LENGTH_UNIT ( ) NAMED_UNIT ( * ) SI_UNIT ( .MILLI., .METRE. ) );
#715 = SURFACE_SIDE_STYLE ('',( #423 ) ) ;
#716 = CYLINDRICAL_SURFACE ( 'NONE', #446, 0.03333333333333334675 ) ;
#717 = VERTEX_POINT ( 'NONE', #141 ) ;
#718 = CARTESIAN_POINT ( 'NONE',  ( -0.9999999999999995559, 1.449999999999999956, 0.5749999999999997335 ) ) ;
#719 = CYLINDRICAL_SURFACE ( 'NONE', #967, 0.05000000000000002359 ) ;
#720 = CARTESIAN_POINT ( 'NONE',  ( -0.9499999999999995115, 0.05000000000000000278, 0.5749999999999998446 ) ) ;
#721 = LINE ( 'NONE', #1043, #412 ) ;
#722 = EDGE_LOOP ( 'NONE', ( #912, #868, #414, #1244 ) ) ;
#723 = EDGE_LOOP ( 'NONE', ( #567, #1270, #319, #770 ) ) ;
#724 = EDGE_CURVE ( 'NONE', #744, #918, #440, .T. ) ;
#725 = ORIENTED_EDGE ( 'NONE', *, *, #257, .T. ) ;
#726 = AXIS2_PLACEMENT_3D ( 'NONE', #104, #1160, #1171 ) ;
#727 = DIRECTION ( 'NONE',  ( 1.000000000000000000, 0.0000000000000000000, -1.734723475976807341E-16 ) ) ;
#728 = EDGE_CURVE ( 'NONE', #8, #1115, #410, .T. ) ;
#729 = DIRECTION ( 'NONE',  ( 1.000000000000000000, 0.0000000000000000000, -1.734723475976807341E-16 ) ) ;
#730 = LINE ( 'NONE', #740, #1240 ) ;
#731 = DIRECTION ( 'NONE',  ( 0.0000000000000000000, 0.0000000000000000000, -1.000000000000000000 ) ) ;
#732 = COLOUR_RGB ( '',0.7921568627450980005, 0.8196078431372548767, 0.9333333333333333481 ) ;
#733 = ORIENTED_EDGE ( 'NONE', *, *, #290, .T. ) ;
#734 = DIRECTION ( 'NONE',  ( -0.0000000000000000000, -1.000000000000000000, -0.0000000000000000000 ) ) ;
#735 = ORIENTED_EDGE ( 'NONE', *, *, #974, .F. ) ;
#736 = EDGE_LOOP ( 'NONE', ( #421, #468, #762, #197 ) ) ;
#737 = DIRECTION ( 'NONE',  ( -1.000000000000000000, -0.0000000000000000000, 8.673617379884036705E-17 ) ) ;
#738 =( NAMED_UNIT ( * ) PLANE_ANGLE_UNIT ( ) SI_UNIT ( $, .RADIAN. ) );
#739 = AXIS2_PLACEMENT_3D ( 'NONE', #467, #550, #288 ) ;
#740 = CARTESIAN_POINT ( 'NONE',  ( 1.000000000000000000, 0.04999999999999991257, -0.6249999999999998890 ) ) ;
#741 = CARTESIAN_POINT ( 'NONE',  ( 0.4950000000008003553, 0.04999999999999991951, -0.6083333333333332815 ) ) ;
#742 = EDGE_CURVE ( 'NONE', #75, #264, #642, .T. ) ;
#743 = DIRECTION ( 'NONE',  ( 1.000000000000000000, -0.0000000000000000000, 0.0000000000000000000 ) ) ;
#744 = VERTEX_POINT ( 'NONE', #710 ) ;
#745 = CARTESIAN_POINT ( 'NONE',  ( -0.4949999999999994404, 1.399999999999999911, 0.6083333333333332815 ) ) ;
#746 = FACE_OUTER_BOUND ( 'NONE', #1059, .T. ) ;
#747 = ORIENTED_EDGE ( 'NONE', *, *, #551, .F. ) ;
#748 = ORIENTED_EDGE ( 'NONE', *, *, #77, .T. ) ;
#749 = CIRCLE ( 'NONE', #1084, 0.03333333333333334675 ) ;
#750 = ORIENTED_EDGE ( 'NONE', *, *, #394, .F. ) ;
#751 = ORIENTED_EDGE ( 'NONE', *, *, #1269, .T. ) ;
#752 = EDGE_CURVE ( 'NONE', #589, #581, #266, .T. ) ;
#753 = EDGE_LOOP ( 'NONE', ( #463, #1206, #327, #610 ) ) ;
#754 = PLANE ( 'NONE',  #417 ) ;
#755 = DIRECTION ( 'NONE',  ( 1.000000000000000000, 0.0000000000000000000, -1.734723475976807341E-16 ) ) ;
#756 = CARTESIAN_POINT ( 'NONE',  ( 500000.0000000000582, 1.399999999999999911, -0.5750000000433679315 ) ) ;
#757 = AXIS2_PLACEMENT_3D ( 'NONE', #346, #696, #334 ) ;
#758 = DIRECTION ( 'NONE',  ( -3.469446951953614682E-16, -0.0000000000000000000, -1.000000000000000000 ) ) ;
#759 = CARTESIAN_POINT ( 'NONE',  ( 0.4950000000008003553, 1.399999999999999911, 0.6083333333333332815 ) ) ;
#760 = CARTESIAN_POINT ( 'NONE',  ( 0.0000000000000000000, 1.399999999999999911, 0.5749999999999998446 ) ) ;
#761 = MANIFOLD_SOLID_BREP ( 'Mirror2', #936 ) ;
#762 = ORIENTED_EDGE ( 'NONE', *, *, #934, .F. ) ;
#763 = CARTESIAN_POINT ( 'NONE',  ( 0.9499999999999995115, 0.04999999999999991257, 0.6249999999999998890 ) ) ;
#764 = SPHERICAL_SURFACE ( 'NONE', #680, 0.05000000000000000278 ) ;
#765 = ORIENTED_EDGE ( 'NONE', *, *, #415, .T. ) ;
#766 = DIRECTION ( 'NONE',  ( -0.0000000000000000000, -1.000000000000000000, -0.0000000000000000000 ) ) ;
#767 = VECTOR ( 'NONE', #1005, 1000.000000000000000 ) ;
#768 = LINE ( 'NONE', #781, #997 ) ;
#769 = AXIS2_PLACEMENT_3D ( 'NONE', #124, #1205, #114 ) ;
#770 = ORIENTED_EDGE ( 'NONE', *, *, #752, .T. ) ;
#771 = VECTOR ( 'NONE', #1015, 1000.000000000000000 ) ;
#772 = ORIENTED_EDGE ( 'NONE', *, *, #448, .F. ) ;
#773 = CARTESIAN_POINT ( 'NONE',  ( -0.9499999999999999556, 0.04999999999999991257, -0.6249999999999998890 ) ) ;
#774 = EDGE_CURVE ( 'NONE', #1187, #717, #853, .T. ) ;
#775 = VECTOR ( 'NONE', #198, 1000.000000000000000 ) ;
#776 = ORIENTED_EDGE ( 'NONE', *, *, #728, .T. ) ;
#777 = ORIENTED_EDGE ( 'NONE', *, *, #1082, .T. ) ;
#778 = PLANE ( 'NONE',  #459 ) ;
#779 = ORIENTED_EDGE ( 'NONE', *, *, #1198, .F. ) ;
#780 = VECTOR ( 'NONE', #1276, 1000.000000000000000 ) ;
#781 = CARTESIAN_POINT ( 'NONE',  ( 0.0000000000000000000, 0.0000000000000000000, 0.5749999999999998446 ) ) ;
#782 = DIRECTION ( 'NONE',  ( 1.000000000000000000, 0.0000000000000000000, 0.0000000000000000000 ) ) ;
#783 = AXIS2_PLACEMENT_3D ( 'NONE', #1188, #11, #618 ) ;
#784 = DIRECTION ( 'NONE',  ( 0.0000000000000000000, -0.0000000000000000000, -1.000000000000000000 ) ) ;
#785 = ADVANCED_FACE ( 'NONE', ( #674 ), #869, .T. ) ;
#786 = EDGE_CURVE ( 'NONE', #1238, #280, #1225, .T. ) ;
#787 = CARTESIAN_POINT ( 'NONE',  ( -0.9499999999999995115, 1.399999999999999911, 0.6249999999999998890 ) ) ;
#788 = FACE_OUTER_BOUND ( 'NONE', #525, .T. ) ;
#789 = VERTEX_POINT ( 'NONE', #424 ) ;
#790 = VECTOR ( 'NONE', #1086, 1000.000000000000000 ) ;
#791 = EDGE_LOOP ( 'NONE', ( #333, #135, #772, #560, #340, #725, #398, #1129 ) ) ;
#792 = FACE_OUTER_BOUND ( 'NONE', #791, .T. ) ;
#793 = ORIENTED_EDGE ( 'NONE', *, *, #786, .T. ) ;
#794 = VERTEX_POINT ( 'NONE', #517 ) ;
#795 = AXIS2_PLACEMENT_3D ( 'NONE', #720, #808, #1108 ) ;
#796 = EDGE_CURVE ( 'NONE', #595, #947, #838, .T. ) ;
#797 = DIRECTION ( 'NONE',  ( -1.000000000000000000, -0.0000000000000000000, 8.673617379884036705E-17 ) ) ;
#798 = DIRECTION ( 'NONE',  ( 1.000000000000000000, -0.0000000000000000000, 1.734723475976807341E-16 ) ) ;
#799 = DIRECTION ( 'NONE',  ( -1.000000000000000000, -0.0000000000000000000, -0.0000000000000000000 ) ) ;
#800 = AXIS2_PLACEMENT_3D ( 'NONE', #224, #994, #1079 ) ;
#801 = EDGE_LOOP ( 'NONE', ( #358, #630, #920, #61 ) ) ;
#802 = PRESENTATION_STYLE_ASSIGNMENT (( #39 ) ) ;
#803 = DIRECTION ( 'NONE',  ( 1.734723475976807341E-16, -0.0000000000000000000, -1.000000000000000000 ) ) ;
#804 = EDGE_CURVE ( 'NONE', #296, #24, #1045, .T. ) ;
#805 = VECTOR ( 'NONE', #959, 1000.000000000000000 ) ;
#806 = ORIENTED_EDGE ( 'NONE', *, *, #876, .T. ) ;
#807 = DIRECTION ( 'NONE',  ( -0.0000000000000000000, -0.0000000000000000000, 1.000000000000000000 ) ) ;
#808 = DIRECTION ( 'NONE',  ( 0.0000000000000000000, 1.000000000000000000, 0.0000000000000000000 ) ) ;
#809 = AXIS2_PLACEMENT_3D ( 'NONE', #420, #1099, #897 ) ;
#810 = ADVANCED_FACE ( 'NONE', ( #183 ), #487, .T. ) ;
#811 = CARTESIAN_POINT ( 'NONE',  ( -0.4949999999999994404, 0.01666666666666666644, 0.5749999999999997335 ) ) ;
#812 = PLANE ( 'NONE',  #667 ) ;
#813 = CARTESIAN_POINT ( 'NONE',  ( 0.0000000000000000000, 1.449999999999999956, 0.0000000000000000000 ) ) ;
#814 = DIRECTION ( 'NONE',  ( 1.000000000000000000, 0.0000000000000000000, 0.0000000000000000000 ) ) ;
#815 = CARTESIAN_POINT ( 'NONE',  ( -0.9499999999999995115, 0.04999999999999991257, 0.5749999999999998446 ) ) ;
#816 = PRESENTATION_LAYER_ASSIGNMENT (  '', '', ( #242 ) ) ;
#817 = DIRECTION ( 'NONE',  ( 0.0000000000000000000, -1.000000000000000000, 0.0000000000000000000 ) ) ;
#818 = ORIENTED_EDGE ( 'NONE', *, *, #1092, .T. ) ;
#819 = LINE ( 'NONE', #849, #233 ) ;
#820 = VECTOR ( 'NONE', #345, 1000.000000000000000 ) ;
#821 = ORIENTED_EDGE ( 'NONE', *, *, #32, .F. ) ;
#822 = LINE ( 'NONE', #28, #690 ) ;
#823 = ORIENTED_EDGE ( 'NONE', *, *, #702, .F. ) ;
#824 = ORIENTED_EDGE ( 'NONE', *, *, #478, .T. ) ;
#825 = VERTEX_POINT ( 'NONE', #1145 ) ;
#826 = ORIENTED_EDGE ( 'NONE', *, *, #257, .F. ) ;
#827 = FACE_OUTER_BOUND ( 'NONE', #112, .T. ) ;
#828 = CARTESIAN_POINT ( 'NONE',  ( 500000.0000000000582, 1.399999999999999911, 0.6083333332899651946 ) ) ;
#829 = PRESENTATION_STYLE_ASSIGNMENT (( #547 ) ) ;
#830 = AXIS2_PLACEMENT_3D ( 'NONE', #686, #5, #2 ) ;
#831 = FACE_OUTER_BOUND ( 'NONE', #1093, .T. ) ;
#832 = EDGE_CURVE ( 'NONE', #717, #216, #214, .T. ) ;
#833 = DIRECTION ( 'NONE',  ( 3.469446951953614682E-16, -0.0000000000000000000, 1.000000000000000000 ) ) ;
#834 = UNCERTAINTY_MEASURE_WITH_UNIT (LENGTH_MEASURE( 1.000000000000000082E-05 ), #1207, 'distance_accuracy_value', 'NONE');
#835 = AXIS2_PLACEMENT_3D ( 'NONE', #760, #303, #665 ) ;
#836 = EDGE_LOOP ( 'NONE', ( #779, #955, #612, #1064 ) ) ;
#837 = ORIENTED_EDGE ( 'NONE', *, *, #1221, .F. ) ;
#838 = LINE ( 'NONE', #1215, #1195 ) ;
#839 = ORIENTED_EDGE ( 'NONE', *, *, #1247, .F. ) ;
#840 = ORIENTED_EDGE ( 'NONE', *, *, #1204, .T. ) ;
#841 = CIRCLE ( 'NONE', #979, 0.05000000000000002359 ) ;
#842 = ORIENTED_EDGE ( 'NONE', *, *, #847, .T. ) ;
#843 = VERTEX_POINT ( 'NONE', #49 ) ;
#844 = CARTESIAN_POINT ( 'NONE',  ( -0.4949999999999994404, 1.433333333333333348, -0.5749999999999998446 ) ) ;
#845 = PLANE ( 'NONE',  #870 ) ;
#846 = DIRECTION ( 'NONE',  ( -1.000000000000000000, -0.0000000000000000000, -0.0000000000000000000 ) ) ;
#847 = EDGE_CURVE ( 'NONE', #640, #296, #1131, .T. ) ;
#848 = DIRECTION ( 'NONE',  ( 0.0000000000000000000, 0.0000000000000000000, 1.000000000000000000 ) ) ;
#849 = CARTESIAN_POINT ( 'NONE',  ( 500000.0000000000582, 0.04999999999999991257, -0.6083333333767012574 ) ) ;
#850 = DIRECTION ( 'NONE',  ( 1.000000000000000000, 0.0000000000000000000, -8.673617379884036705E-17 ) ) ;
#851 = AXIS2_PLACEMENT_3D ( 'NONE', #205, #289, #1176 ) ;
#852 = VECTOR ( 'NONE', #1038, 1000.000000000000000 ) ;
#853 = LINE ( 'NONE', #811, #1242 ) ;
#854 = CARTESIAN_POINT ( 'NONE',  ( 1.000000000000000000, 1.449999999999999956, -0.6249999999999998890 ) ) ;
#855 = ORIENTED_EDGE ( 'NONE', *, *, #774, .T. ) ;
#856 = ORIENTED_EDGE ( 'NONE', *, *, #406, .F. ) ;
#857 = EDGE_LOOP ( 'NONE', ( #137, #840, #699, #185 ) ) ;
#858 = DIRECTION ( 'NONE',  ( 0.0000000000000000000, 0.0000000000000000000, -1.000000000000000000 ) ) ;
#859 = EDGE_CURVE ( 'NONE', #353, #794, #384, .T. ) ;
#860 = FACE_OUTER_BOUND ( 'NONE', #1094, .T. ) ;
#861 = CARTESIAN_POINT ( 'NONE',  ( 1.000000000000000000, 1.449999999999999956, -0.5749999999999998446 ) ) ;
#862 = CARTESIAN_POINT ( 'NONE',  ( 500000.0000000000582, 1.399999999999999911, 0.6083333332899651946 ) ) ;
#863 = FACE_OUTER_BOUND ( 'NONE', #736, .T. ) ;
#864 = CARTESIAN_POINT ( 'NONE',  ( 0.4949999999999993294, 1.449999999999999956, -0.6249999999999998890 ) ) ;
#865 = EDGE_CURVE ( 'NONE', #596, #1138, #409, .T. ) ;
#866 = DIRECTION ( 'NONE',  ( 0.0000000000000000000, -1.000000000000000000, 0.0000000000000000000 ) ) ;
#867 = VECTOR ( 'NONE', #797, 1000.000000000000000 ) ;
#868 = ORIENTED_EDGE ( 'NONE', *, *, #873, .T. ) ;
#869 = CYLINDRICAL_SURFACE ( 'NONE', #809, 0.05000000000000002359 ) ;
#870 = AXIS2_PLACEMENT_3D ( 'NONE', #854, #1052, #79 ) ;
#871 = VERTEX_POINT ( 'NONE', #540 ) ;
#872 = CARTESIAN_POINT ( 'NONE',  ( 0.9499999999999997335, 1.399999999999999911, 3.295974604355932986E-16 ) ) ;
#873 = EDGE_CURVE ( 'NONE', #17, #48, #510, .T. ) ;
#874 = AXIS2_PLACEMENT_3D ( 'NONE', #1234, #817, #1245 ) ;
#875 =( NAMED_UNIT ( * ) PLANE_ANGLE_UNIT ( ) SI_UNIT ( $, .RADIAN. ) );
#876 = EDGE_CURVE ( 'NONE', #887, #1187, #1162, .T. ) ;
#877 = VERTEX_POINT ( 'NONE', #167 ) ;
#878 = CARTESIAN_POINT ( 'NONE',  ( 500000.0000000000582, 1.433333333333333348, -0.5750000000433679315 ) ) ;
#879 = SURFACE_STYLE_FILL_AREA ( #1203 ) ;
#880 = LINE ( 'NONE', #1042, #624 ) ;
#881 = FACE_OUTER_BOUND ( 'NONE', #117, .T. ) ;
#882 = ORIENTED_EDGE ( 'NONE', *, *, #282, .F. ) ;
#883 = MECHANICAL_DESIGN_GEOMETRIC_PRESENTATION_REPRESENTATION (  '', ( #242 ), #269 ) ;
#884 = FACE_OUTER_BOUND ( 'NONE', #248, .T. ) ;
#885 = CARTESIAN_POINT ( 'NONE',  ( -0.9499999999999999556, 0.05000000000000000278, -0.5749999999999998446 ) ) ;
#886 = ORIENTED_EDGE ( 'NONE', *, *, #157, .F. ) ;
#887 = VERTEX_POINT ( 'NONE', #368 ) ;
#888 = MECHANICAL_DESIGN_GEOMETRIC_PRESENTATION_REPRESENTATION (  '', ( #130 ), #1219 ) ;
#889 = ADVANCED_FACE ( 'NONE', ( #312 ), #565, .T. ) ;
#890 = DIRECTION ( 'NONE',  ( -1.000000000000000000, 0.0000000000000000000, -0.0000000000000000000 ) ) ;
#891 = DIRECTION ( 'NONE',  ( -1.000000000000000000, 0.0000000000000000000, 0.0000000000000000000 ) ) ;
#892 = VECTOR ( 'NONE', #576, 1000.000000000000000 ) ;
#893 = CARTESIAN_POINT ( 'NONE',  ( -0.4949999999999993294, 1.399999999999999911, -0.6249999999999998890 ) ) ;
#894 = AXIS2_PLACEMENT_3D ( 'NONE', #962, #972, #1267 ) ;
#895 = ORIENTED_EDGE ( 'NONE', *, *, #146, .F. ) ;
#896 = EDGE_CURVE ( 'NONE', #107, #640, #465, .T. ) ;
#897 = DIRECTION ( 'NONE',  ( 0.0000000000000000000, 0.0000000000000000000, -1.000000000000000000 ) ) ;
#898 = CIRCLE ( 'NONE', #626, 0.05000000000000002359 ) ;
#899 = ORIENTED_EDGE ( 'NONE', *, *, #387, .F. ) ;
#900 = LINE ( 'NONE', #1196, #1134 ) ;
#901 = CARTESIAN_POINT ( 'NONE',  ( -0.4949999999999994404, 1.399999999999999911, -0.5749999999999998446 ) ) ;
#902 = DIRECTION ( 'NONE',  ( 0.0000000000000000000, -0.0000000000000000000, 1.000000000000000000 ) ) ;
#903 = CARTESIAN_POINT ( 'NONE',  ( 0.9999999999999995559, 0.04999999999999991257, 0.6249999999999998890 ) ) ;
#904 = CARTESIAN_POINT ( 'NONE',  ( 0.9499999999999995115, 1.449999999999999956, 0.6249999999999998890 ) ) ;
#905 = CARTESIAN_POINT ( 'NONE',  ( 0.9499999999999995115, 1.399999999999999911, 0.5749999999999998446 ) ) ;
#906 = ADVANCED_FACE ( 'NONE', ( #746 ), #764, .T. ) ;
#907 = CARTESIAN_POINT ( 'NONE',  ( 0.9499999999999995115, 1.449999999999999956, 0.5749999999999998446 ) ) ;
#908 = DIRECTION ( 'NONE',  ( -1.000000000000000000, -0.0000000000000000000, 8.673617379884036705E-17 ) ) ;
#909 = PRODUCT_RELATED_PRODUCT_CATEGORY ( 'part', '', ( #93 ) ) ;
#910 = ADVANCED_FACE ( 'NONE', ( #788 ), #437, .T. ) ;
#911 = CARTESIAN_POINT ( 'NONE',  ( 500000.0000000000582, 0.01666666666666666644, 0.5749999999566316466 ) ) ;
#912 = ORIENTED_EDGE ( 'NONE', *, *, #1172, .T. ) ;
#913 = DIRECTION ( 'NONE',  ( 1.000000000000000000, -0.0000000000000000000, 0.0000000000000000000 ) ) ;
#914 = AXIS2_PLACEMENT_3D ( 'NONE', #1023, #1228, #1223 ) ;
#915 = CIRCLE ( 'NONE', #660, 0.05000000000000002359 ) ;
#916 = PRESENTATION_STYLE_ASSIGNMENT (( #434 ) ) ;
#917 = ORIENTED_EDGE ( 'NONE', *, *, #166, .F. ) ;
#918 = VERTEX_POINT ( 'NONE', #1151 ) ;
#919 = DIRECTION ( 'NONE',  ( -0.0000000000000000000, 1.000000000000000000, -0.0000000000000000000 ) ) ;
#920 = ORIENTED_EDGE ( 'NONE', *, *, #592, .T. ) ;
#921 = DIRECTION ( 'NONE',  ( 8.673617379884037937E-17, -0.0000000000000000000, 1.000000000000000000 ) ) ;
#922 = ADVANCED_FACE ( 'NONE', ( #322 ), #1139, .F. ) ;
#923 = ORIENTED_EDGE ( 'NONE', *, *, #464, .T. ) ;
#924 = DIRECTION ( 'NONE',  ( 1.000000000000000000, 0.0000000000000000000, -1.734723475976807341E-16 ) ) ;
#925 = VECTOR ( 'NONE', #531, 1000.000000000000000 ) ;
#926 = DIRECTION ( 'NONE',  ( -1.000000000000000000, 0.0000000000000000000, 0.0000000000000000000 ) ) ;
#927 = EDGE_CURVE ( 'NONE', #971, #159, #154, .T. ) ;
#928 = CARTESIAN_POINT ( 'NONE',  ( -0.9999999999999995559, 1.399999999999999911, 0.6249999999999998890 ) ) ;
#929 = PRODUCT_DEFINITION_SHAPE ( 'NONE', 'NONE',  #1191 ) ;
#930 = DIRECTION ( 'NONE',  ( 0.0000000000000000000, 0.0000000000000000000, -1.000000000000000000 ) ) ;
#931 = DIRECTION ( 'NONE',  ( 0.0000000000000000000, 0.0000000000000000000, -1.000000000000000000 ) ) ;
#932 = SURFACE_SIDE_STYLE ('',( #1152 ) ) ;
#933 = UNCERTAINTY_MEASURE_WITH_UNIT (LENGTH_MEASURE( 1.000000000000000082E-05 ), #1000, 'distance_accuracy_value', 'NONE');
#934 = EDGE_CURVE ( 'NONE', #460, #640, #687, .T. ) ;
#935 = CIRCLE ( 'NONE', #286, 0.05000000000000002359 ) ;
#936 = CLOSED_SHELL ( 'NONE', ( #1072, #204, #152, #976, #131, #588, #1012, #162, #228, #605, #539, #910, #619, #304, #492, #614, #810, #1156 ) ) ;
#937 = CIRCLE ( 'NONE', #174, 0.05000000000000002359 ) ;
#938 =( NAMED_UNIT ( * ) SI_UNIT ( $, .STERADIAN. ) SOLID_ANGLE_UNIT ( ) );
#939 = AXIS2_PLACEMENT_3D ( 'NONE', #815, #1067, #191 ) ;
#940 = CARTESIAN_POINT ( 'NONE',  ( -0.9499999999999999556, 0.04999999999999991257, -0.6249999999999998890 ) ) ;
#941 = EDGE_CURVE ( 'NONE', #460, #75, #181, .T. ) ;
#942 = CARTESIAN_POINT ( 'NONE',  ( 0.4949999999999993294, 1.449999999999999956, -0.6249999999999998890 ) ) ;
#943 = LINE ( 'NONE', #862, #1123 ) ;
#944 = CARTESIAN_POINT ( 'NONE',  ( 0.4949999999999995515, 0.04999999999999991257, 0.6249999999999998890 ) ) ;
#945 = AXIS2_PLACEMENT_3D ( 'NONE', #271, #160, #258 ) ;
#946 = CARTESIAN_POINT ( 'NONE',  ( -0.9499999999999999556, 1.399999999999999911, -0.5749999999999998446 ) ) ;
#947 = VERTEX_POINT ( 'NONE', #82 ) ;
#948 = CYLINDRICAL_SURFACE ( 'NONE', #726, 0.05000000000000002359 ) ;
#949 = VECTOR ( 'NONE', #758, 1000.000000000000000 ) ;
#950 = CYLINDRICAL_SURFACE ( 'NONE', #302, 0.05000000000000002359 ) ;
#951 = EDGE_CURVE ( 'NONE', #918, #399, #1058, .T. ) ;
#952 = FACE_OUTER_BOUND ( 'NONE', #361, .T. ) ;
#953 = EDGE_LOOP ( 'NONE', ( #10, #1251, #1013, #750 ) ) ;
#954 = CIRCLE ( 'NONE', #439, 0.05000000000000002359 ) ;
#955 = ORIENTED_EDGE ( 'NONE', *, *, #196, .F. ) ;
#956 = CARTESIAN_POINT ( 'NONE',  ( 0.4949999999999993294, 1.449999999999999956, -0.6249999999999998890 ) ) ;
#957 = ORIENTED_EDGE ( 'NONE', *, *, #774, .F. ) ;
#958 = DIRECTION ( 'NONE',  ( -1.734723475976807341E-16, 0.0000000000000000000, -1.000000000000000000 ) ) ;
#959 = DIRECTION ( 'NONE',  ( 3.469446951953614682E-16, -0.0000000000000000000, 1.000000000000000000 ) ) ;
#960 = CARTESIAN_POINT ( 'NONE',  ( 0.4950000000008003553, 0.04999999999999991257, -0.6083333333333331705 ) ) ;
#961 = AXIS2_PLACEMENT_3D ( 'NONE', #546, #249, #1239 ) ;
#962 = CARTESIAN_POINT ( 'NONE',  ( 1.000000000000000000, 1.449999999999999956, -0.6249999999999998890 ) ) ;
#963 = DIRECTION ( 'NONE',  ( -1.000000000000000000, 0.0000000000000000000, 0.0000000000000000000 ) ) ;
#964 = DIRECTION ( 'NONE',  ( -1.000000000000000000, 0.0000000000000000000, 0.0000000000000000000 ) ) ;
#965 = VERTEX_POINT ( 'NONE', #88 ) ;
#966 = CARTESIAN_POINT ( 'NONE',  ( -0.9999999999999995559, 1.399999999999999911, 0.5749999999999998446 ) ) ;
#967 = AXIS2_PLACEMENT_3D ( 'NONE', #1055, #190, #647 ) ;
#968 = FACE_OUTER_BOUND ( 'NONE', #987, .T. ) ;
#969 = ORIENTED_EDGE ( 'NONE', *, *, #742, .F. ) ;
#970 = LINE ( 'NONE', #401, #790 ) ;
#971 = VERTEX_POINT ( 'NONE', #388 ) ;
#972 = DIRECTION ( 'NONE',  ( -1.000000000000000000, 0.0000000000000000000, -3.469446951953614682E-16 ) ) ;
#973 = CARTESIAN_POINT ( 'NONE',  ( 1.000000000000000000, 0.04999999999999991257, -0.6249999999999998890 ) ) ;
#974 = EDGE_CURVE ( 'NONE', #965, #1090, #453, .T. ) ;
#975 = VECTOR ( 'NONE', #472, 1000.000000000000000 ) ;
#976 = ADVANCED_FACE ( 'NONE', ( #69 ), #845, .F. ) ;
#977 = DIRECTION ( 'NONE',  ( -1.000000000000000000, 0.0000000000000000000, 3.469446951953615668E-16 ) ) ;
#978 = CARTESIAN_POINT ( 'NONE',  ( -0.4949999999999993294, 1.449999999999999956, -0.6249999999999998890 ) ) ;
#979 = AXIS2_PLACEMENT_3D ( 'NONE', #946, #1133, #1046 ) ;
#980 = DIRECTION ( 'NONE',  ( 0.0000000000000000000, 0.0000000000000000000, -1.000000000000000000 ) ) ;
#981 = LINE ( 'NONE', #658, #711 ) ;
#982 = VERTEX_POINT ( 'NONE', #479 ) ;
#983 = FILL_AREA_STYLE ('',( #992 ) ) ;
#984 = CARTESIAN_POINT ( 'NONE',  ( 0.9499999999999995115, 1.399999999999999911, 0.6249999999999998890 ) ) ;
#985 = FACE_OUTER_BOUND ( 'NONE', #1107, .T. ) ;
#986 = LINE ( 'NONE', #978, #528 ) ;
#987 = EDGE_LOOP ( 'NONE', ( #1002, #76, #765, #341 ) ) ;
#988 = EDGE_CURVE ( 'NONE', #877, #17, #730, .T. ) ;
#989 = SPHERICAL_SURFACE ( 'NONE', #193, 0.05000000000000000278 ) ;
#990 = DIRECTION ( 'NONE',  ( 0.0000000000000000000, -1.000000000000000000, 0.0000000000000000000 ) ) ;
#991 = AXIS2_PLACEMENT_3D ( 'NONE', #1185, #385, #217 ) ;
#992 = FILL_AREA_STYLE_COLOUR ( '', #86 ) ;
#993 = EDGE_CURVE ( 'NONE', #280, #563, #1271, .T. ) ;
#994 = DIRECTION ( 'NONE',  ( 0.0000000000000000000, 1.000000000000000000, 0.0000000000000000000 ) ) ;
#995 = VERTEX_POINT ( 'NONE', #1260 ) ;
#996 = CIRCLE ( 'NONE', #939, 0.05000000000000002359 ) ;
#997 = VECTOR ( 'NONE', #890, 1000.000000000000000 ) ;
#998 = DIRECTION ( 'NONE',  ( -0.0000000000000000000, 0.0000000000000000000, -1.000000000000000000 ) ) ;
#999 = ORIENTED_EDGE ( 'NONE', *, *, #166, .T. ) ;
#1000 =( LENGTH_UNIT ( ) NAMED_UNIT ( * ) SI_UNIT ( .MILLI., .METRE. ) );
#1001 = ORIENTED_EDGE ( 'NONE', *, *, #1172, .F. ) ;
#1002 = ORIENTED_EDGE ( 'NONE', *, *, #328, .T. ) ;
#1003 = ORIENTED_EDGE ( 'NONE', *, *, #1126, .F. ) ;
#1004 = APPLICATION_CONTEXT ( 'automotive_design' ) ;
#1005 = DIRECTION ( 'NONE',  ( -0.0000000000000000000, 1.000000000000000000, -0.0000000000000000000 ) ) ;
#1006 = CARTESIAN_POINT ( 'NONE',  ( 0.0000000000000000000, 0.0000000000000000000, -0.5749999999999998446 ) ) ;
#1007 = DIRECTION ( 'NONE',  ( 1.000000000000000000, -0.0000000000000000000, -0.0000000000000000000 ) ) ;
#1008 = CARTESIAN_POINT ( 'NONE',  ( -1.000000000000000000, 1.399999999999999911, -0.5749999999999998446 ) ) ;
#1009 = ORIENTED_EDGE ( 'NONE', *, *, #282, .T. ) ;
#1010 = CARTESIAN_POINT ( 'NONE',  ( 0.4950000000008003553, 1.399999999999999911, 0.6083333333333332815 ) ) ;
#1011 = EDGE_CURVE ( 'NONE', #373, #887, #880, .T. ) ;
#1012 = ADVANCED_FACE ( 'NONE', ( #590 ), #719, .T. ) ;
#1013 = ORIENTED_EDGE ( 'NONE', *, *, #728, .F. ) ;
#1014 = DIRECTION ( 'NONE',  ( -1.734723475976807341E-16, 0.0000000000000000000, -1.000000000000000000 ) ) ;
#1015 = DIRECTION ( 'NONE',  ( -0.0000000000000000000, 1.000000000000000000, -0.0000000000000000000 ) ) ;
#1016 = VECTOR ( 'NONE', #1159, 1000.000000000000000 ) ;
#1017 = EDGE_LOOP ( 'NONE', ( #735, #839, #1258, #1273, #1183, #74, #407, #882 ) ) ;
#1018 = ORIENTED_EDGE ( 'NONE', *, *, #592, .F. ) ;
#1019 = DIRECTION ( 'NONE',  ( 0.0000000000000000000, 0.0000000000000000000, 1.000000000000000000 ) ) ;
#1020 = VERTEX_POINT ( 'NONE', #745 ) ;
#1021 = CIRCLE ( 'NONE', #1233, 0.05000000000000002359 ) ;
#1022 = DIRECTION ( 'NONE',  ( 0.0000000000000000000, -0.0000000000000000000, 1.000000000000000000 ) ) ;
#1023 = CARTESIAN_POINT ( 'NONE',  ( 0.9499999999999999556, 0.04999999999999991257, -0.5749999999999998446 ) ) ;
#1024 = EDGE_CURVE ( 'NONE', #399, #216, #819, .T. ) ;
#1025 = DIRECTION ( 'NONE',  ( 1.000000000000000000, 0.0000000000000000000, 0.0000000000000000000 ) ) ;
#1026 = AXIS2_PLACEMENT_3D ( 'NONE', #1119, #727, #526 ) ;
#1027 = ORIENTED_EDGE ( 'NONE', *, *, #1153, .T. ) ;
#1028 = ADVANCED_FACE ( 'NONE', ( #90 ), #1253, .F. ) ;
#1029 = CARTESIAN_POINT ( 'NONE',  ( -0.4949999999999994404, 0.04999999999999991257, -0.6083333333333331705 ) ) ;
#1030 = ORIENTED_EDGE ( 'NONE', *, *, #702, .T. ) ;
#1031 = LINE ( 'NONE', #1074, #775 ) ;
#1032 = ORIENTED_EDGE ( 'NONE', *, *, #865, .F. ) ;
#1033 = FACE_OUTER_BOUND ( 'NONE', #1106, .T. ) ;
#1034 = VERTEX_POINT ( 'NONE', #1066 ) ;
#1035 = ORIENTED_EDGE ( 'NONE', *, *, #941, .T. ) ;
#1036 = PLANE ( 'NONE',  #961 ) ;
#1037 = CYLINDRICAL_SURFACE ( 'NONE', #151, 0.05000000000000002359 ) ;
#1038 = DIRECTION ( 'NONE',  ( 0.0000000000000000000, -1.000000000000000000, 0.0000000000000000000 ) ) ;
#1039 = EDGE_CURVE ( 'NONE', #75, #982, #1224, .T. ) ;
#1040 = DIRECTION ( 'NONE',  ( 3.469446951953614682E-16, -0.0000000000000000000, -1.000000000000000000 ) ) ;
#1041 = ORIENTED_EDGE ( 'NONE', *, *, #493, .F. ) ;
#1042 = CARTESIAN_POINT ( 'NONE',  ( 500000.0000000000582, 0.04999999999999991257, 0.6083333332899651946 ) ) ;
#1043 = CARTESIAN_POINT ( 'NONE',  ( -0.4949999999999993294, 1.449999999999999956, -0.6249999999999998890 ) ) ;
#1044 = VECTOR ( 'NONE', #15, 1000.000000000000000 ) ;
#1045 = LINE ( 'NONE', #1104, #263 ) ;
#1046 = DIRECTION ( 'NONE',  ( 0.0000000000000000000, 0.0000000000000000000, 1.000000000000000000 ) ) ;
#1047 = ORIENTED_EDGE ( 'NONE', *, *, #239, .F. ) ;
#1048 = ORIENTED_EDGE ( 'NONE', *, *, #670, .F. ) ;
#1049 = DIRECTION ( 'NONE',  ( -1.000000000000000000, -0.0000000000000000000, 8.673617379884036705E-17 ) ) ;
#1050 = CARTESIAN_POINT ( 'NONE',  ( 0.4950000000008003553, 0.04999999999999991257, 0.6083333333333332815 ) ) ;
#1051 = EDGE_CURVE ( 'NONE', #72, #789, #996, .T. ) ;
#1052 = DIRECTION ( 'NONE',  ( 0.0000000000000000000, 0.0000000000000000000, 1.000000000000000000 ) ) ;
#1053 = DIRECTION ( 'NONE',  ( 0.0000000000000000000, -0.0000000000000000000, 1.000000000000000000 ) ) ;
#1054 = AXIS2_PLACEMENT_3D ( 'NONE', #582, #326, #20 ) ;
#1055 = CARTESIAN_POINT ( 'NONE',  ( 0.0000000000000000000, 1.399999999999999911, 0.5749999999999998446 ) ) ;
#1056 = ADVANCED_FACE ( 'NONE', ( #968 ), #292, .T. ) ;
#1057 = CARTESIAN_POINT ( 'NONE',  ( 0.4949999999999993294, 0.0000000000000000000, -0.5749999999999998446 ) ) ;
#1058 = CIRCLE ( 'NONE', #533, 0.03333333333333324267 ) ;
#1059 = EDGE_LOOP ( 'NONE', ( #283, #751, #895 ) ) ;
#1060 = DIRECTION ( 'NONE',  ( 0.0000000000000000000, 0.0000000000000000000, 1.000000000000000000 ) ) ;
#1061 = EDGE_CURVE ( 'NONE', #1275, #373, #554, .T. ) ;
#1062 = CIRCLE ( 'NONE', #1054, 0.05000000000000002359 ) ;
#1063 = VECTOR ( 'NONE', #919, 1000.000000000000000 ) ;
#1064 = ORIENTED_EDGE ( 'NONE', *, *, #47, .F. ) ;
#1065 = ORIENTED_EDGE ( 'NONE', *, *, #993, .T. ) ;
#1066 = CARTESIAN_POINT ( 'NONE',  ( -0.4949999999999994404, 1.399999999999999911, -0.6083333333333332815 ) ) ;
#1067 = DIRECTION ( 'NONE',  ( 0.0000000000000000000, -1.000000000000000000, 0.0000000000000000000 ) ) ;
#1068 = CIRCLE ( 'NONE', #1177, 0.05000000000000002359 ) ;
#1069 = VECTOR ( 'NONE', #743, 1000.000000000000000 ) ;
#1070 = EDGE_CURVE ( 'NONE', #264, #789, #247, .T. ) ;
#1071 = CARTESIAN_POINT ( 'NONE',  ( -0.4949999999999994404, 1.399999999999999911, 0.5749999999999998446 ) ) ;
#1072 = ADVANCED_FACE ( 'NONE', ( #542 ), #389, .F. ) ;
#1073 = CARTESIAN_POINT ( 'NONE',  ( -0.9499999999999999556, 1.399999999999999911, -0.5749999999999998446 ) ) ;
#1074 = CARTESIAN_POINT ( 'NONE',  ( 1.000000000000000000, 1.449999999999999956, -0.5749999999999998446 ) ) ;
#1075 = LINE ( 'NONE', #1006, #397 ) ;
#1076 = ORIENTED_EDGE ( 'NONE', *, *, #896, .F. ) ;
#1077 = LINE ( 'NONE', #861, #7 ) ;
#1078 = ORIENTED_EDGE ( 'NONE', *, *, #666, .F. ) ;
#1079 = DIRECTION ( 'NONE',  ( 0.0000000000000000000, 0.0000000000000000000, 1.000000000000000000 ) ) ;
#1080 = AXIS2_PLACEMENT_3D ( 'NONE', #274, #561, #1265 ) ;
#1081 = DIRECTION ( 'NONE',  ( -1.000000000000000000, 0.0000000000000000000, 0.0000000000000000000 ) ) ;
#1082 = EDGE_CURVE ( 'NONE', #1209, #843, #655, .T. ) ;
#1083 = DIRECTION ( 'NONE',  ( 0.0000000000000000000, 1.000000000000000000, 0.0000000000000000000 ) ) ;
#1084 = AXIS2_PLACEMENT_3D ( 'NONE', #1071, #850, #858 ) ;
#1085 = CIRCLE ( 'NONE', #71, 0.05000000000000002359 ) ;
#1086 = DIRECTION ( 'NONE',  ( 0.0000000000000000000, -1.000000000000000000, 0.0000000000000000000 ) ) ;
#1087 = FACE_OUTER_BOUND ( 'NONE', #484, .T. ) ;
#1088 = LINE ( 'NONE', #256, #820 ) ;
#1089 = SPHERICAL_SURFACE ( 'NONE', #830, 0.05000000000000000278 ) ;
#1090 = VERTEX_POINT ( 'NONE', #1057 ) ;
#1091 = CIRCLE ( 'NONE', #175, 0.05000000000000002359 ) ;
#1092 = EDGE_CURVE ( 'NONE', #236, #877, #1077, .T. ) ;
#1093 = EDGE_LOOP ( 'NONE', ( #1032, #251, #246, #9 ) ) ;
#1094 = EDGE_LOOP ( 'NONE', ( #899, #675, #661, #1111 ) ) ;
#1095 = FILL_AREA_STYLE_COLOUR ( '', #4 ) ;
#1096 = DIRECTION ( 'NONE',  ( 1.000000000000000000, 0.0000000000000000000, 0.0000000000000000000 ) ) ;
#1097 = FACE_OUTER_BOUND ( 'NONE', #1179, .T. ) ;
#1098 = PRODUCT_CONTEXT ( 'NONE', #506, 'mechanical' ) ;
#1099 = DIRECTION ( 'NONE',  ( 0.0000000000000000000, -1.000000000000000000, 0.0000000000000000000 ) ) ;
#1100 = FACE_OUTER_BOUND ( 'NONE', #722, .T. ) ;
#1101 = CARTESIAN_POINT ( 'NONE',  ( -0.4949999999999993294, 0.0000000000000000000, -0.6249999999999998890 ) ) ;
#1102 = DIRECTION ( 'NONE',  ( -1.000000000000000000, 0.0000000000000000000, 0.0000000000000000000 ) ) ;
#1103 = EDGE_CURVE ( 'NONE', #353, #444, #356, .T. ) ;
#1104 = CARTESIAN_POINT ( 'NONE',  ( -0.4949999999999995515, 1.449999999999999956, 0.5749999999999998446 ) ) ;
#1105 = ORIENTED_EDGE ( 'NONE', *, *, #1229, .T. ) ;
#1106 = EDGE_LOOP ( 'NONE', ( #186, #170, #806, #917 ) ) ;
#1107 = EDGE_LOOP ( 'NONE', ( #1041, #818, #821, #776 ) ) ;
#1108 = DIRECTION ( 'NONE',  ( 1.000000000000000000, 0.0000000000000000000, 0.0000000000000000000 ) ) ;
#1109 =( NAMED_UNIT ( * ) PLANE_ANGLE_UNIT ( ) SI_UNIT ( $, .RADIAN. ) );
#1110 = DIRECTION ( 'NONE',  ( -1.000000000000000000, -0.0000000000000000000, 8.673617379884036705E-17 ) ) ;
#1111 = ORIENTED_EDGE ( 'NONE', *, *, #988, .T. ) ;
#1112 = EDGE_LOOP ( 'NONE', ( #342, #511, #335, #969 ) ) ;
#1113 = ORIENTED_EDGE ( 'NONE', *, *, #1236, .T. ) ;
#1114 = ADVANCED_FACE ( 'NONE', ( #498 ), #295, .T. ) ;
#1115 = VERTEX_POINT ( 'NONE', #664 ) ;
#1116 = PLANE ( 'NONE',  #616 ) ;
#1117 = DIRECTION ( 'NONE',  ( -1.000000000000000000, -0.0000000000000000000, 8.673617379884036705E-17 ) ) ;
#1118 = DIRECTION ( 'NONE',  ( -3.469446951953614682E-16, 0.0000000000000000000, 1.000000000000000000 ) ) ;
#1119 = CARTESIAN_POINT ( 'NONE',  ( 0.4949999999999993294, 0.04999999999999991257, -0.5749999999999998446 ) ) ;
#1120 = PLANE ( 'NONE',  #19 ) ;
#1121 = FACE_OUTER_BOUND ( 'NONE', #673, .T. ) ;
#1122 =( NAMED_UNIT ( * ) PLANE_ANGLE_UNIT ( ) SI_UNIT ( $, .RADIAN. ) );
#1123 = VECTOR ( 'NONE', #1280, 1000.000000000000000 ) ;
#1124 = DIRECTION ( 'NONE',  ( -1.000000000000000000, 0.0000000000000000000, 8.673617379884037937E-17 ) ) ;
#1125 = DIRECTION ( 'NONE',  ( -1.000000000000000000, 0.0000000000000000000, 0.0000000000000000000 ) ) ;
#1126 = EDGE_CURVE ( 'NONE', #794, #995, #1031, .T. ) ;
#1127 = VERTEX_POINT ( 'NONE', #1175 ) ;
#1128 = SHAPE_DEFINITION_REPRESENTATION ( #929, #30 ) ;
#1129 = ORIENTED_EDGE ( 'NONE', *, *, #1198, .T. ) ;
#1130 = CARTESIAN_POINT ( 'NONE',  ( 0.9499999999999999556, 0.04999999999999991257, -0.6249999999999998890 ) ) ;
#1131 = CIRCLE ( 'NONE', #103, 0.05000000000000002359 ) ;
#1132 = VECTOR ( 'NONE', #516, 1000.000000000000000 ) ;
#1133 = DIRECTION ( 'NONE',  ( -0.0000000000000000000, -1.000000000000000000, -0.0000000000000000000 ) ) ;
#1134 = VECTOR ( 'NONE', #1189, 1000.000000000000000 ) ;
#1135 = MECHANICAL_DESIGN_GEOMETRIC_PRESENTATION_REPRESENTATION (  '', ( #570 ), #549 ) ;
#1136 = VERTEX_POINT ( 'NONE', #773 ) ;
#1137 = LINE ( 'NONE', #718, #1063 ) ;
#1138 = VERTEX_POINT ( 'NONE', #763 ) ;
#1139 = PLANE ( 'NONE',  #1080 ) ;
#1140 = DIRECTION ( 'NONE',  ( -8.673617379884037937E-17, 0.0000000000000000000, -1.000000000000000000 ) ) ;
#1141 = EDGE_CURVE ( 'NONE', #843, #794, #276, .T. ) ;
#1142 = DIRECTION ( 'NONE',  ( 1.000000000000000000, -0.0000000000000000000, 0.0000000000000000000 ) ) ;
#1143 = VECTOR ( 'NONE', #70, 1000.000000000000000 ) ;
#1144 = AXIS2_PLACEMENT_3D ( 'NONE', #68, #557, #376 ) ;
#1145 = CARTESIAN_POINT ( 'NONE',  ( -0.4949999999999995515, 0.0000000000000000000, 0.5749999999999997335 ) ) ;
#1146 =( GEOMETRIC_REPRESENTATION_CONTEXT ( 3 ) GLOBAL_UNCERTAINTY_ASSIGNED_CONTEXT ( ( #270 ) ) GLOBAL_UNIT_ASSIGNED_CONTEXT ( ( #404, #875, #208 ) ) REPRESENTATION_CONTEXT ( 'NONE', 'WORKASPACE' ) );
#1147 = CARTESIAN_POINT ( 'NONE',  ( 0.4950000000008003553, 1.399999999999999911, 0.5749999999999998446 ) ) ;
#1148 = EDGE_LOOP ( 'NONE', ( #488, #1030, #1241, #380 ) ) ;
#1149 = LINE ( 'NONE', #904, #386 ) ;
#1150 = AXIS2_PLACEMENT_3D ( 'NONE', #187, #963, #200 ) ;
#1151 = CARTESIAN_POINT ( 'NONE',  ( 0.4950000000008003553, 0.01666666666666666644, -0.5749999999999997335 ) ) ;
#1152 = SURFACE_STYLE_FILL_AREA ( #66 ) ;
#1153 = EDGE_CURVE ( 'NONE', #48, #1209, #915, .T. ) ;
#1154 = DIRECTION ( 'NONE',  ( 1.000000000000000000, 0.0000000000000000000, -3.469446951953614682E-16 ) ) ;
#1155 = CARTESIAN_POINT ( 'NONE',  ( 0.4949999999999993294, 1.399999999999999911, -0.6249999999999998890 ) ) ;
#1156 = ADVANCED_FACE ( 'NONE', ( #985 ), #948, .T. ) ;
#1157 = EDGE_LOOP ( 'NONE', ( #705, #169, #1048, #1003 ) ) ;
#1158 = DIRECTION ( 'NONE',  ( 0.0000000000000000000, 0.0000000000000000000, -1.000000000000000000 ) ) ;
#1159 = DIRECTION ( 'NONE',  ( 1.734723475976807341E-16, 0.0000000000000000000, 1.000000000000000000 ) ) ;
#1160 = DIRECTION ( 'NONE',  ( 0.0000000000000000000, -1.000000000000000000, 0.0000000000000000000 ) ) ;
#1161 = CARTESIAN_POINT ( 'NONE',  ( 0.9499999999999995115, 1.399999999999999911, 0.5749999999999998446 ) ) ;
#1162 = CIRCLE ( 'NONE', #305, 0.03333333333333324267 ) ;
#1163 = DIRECTION ( 'NONE',  ( 0.0000000000000000000, -0.0000000000000000000, 1.000000000000000000 ) ) ;
#1164 = CIRCLE ( 'NONE', #1150, 0.05000000000000002359 ) ;
#1165 = FACE_OUTER_BOUND ( 'NONE', #678, .T. ) ;
#1166 = DIRECTION ( 'NONE',  ( 0.0000000000000000000, 0.0000000000000000000, 1.000000000000000000 ) ) ;
#1167 = ADVANCED_FACE ( 'NONE', ( #521 ), #1252, .T. ) ;
#1168 = DIRECTION ( 'NONE',  ( 0.0000000000000000000, 0.0000000000000000000, 1.000000000000000000 ) ) ;
#1169 = CARTESIAN_POINT ( 'NONE',  ( 0.4949999999999993294, 0.04999999999999991257, -0.6249999999999998890 ) ) ;
#1170 = AXIS2_PLACEMENT_3D ( 'NONE', #83, #192, #390 ) ;
#1171 = DIRECTION ( 'NONE',  ( 0.0000000000000000000, 0.0000000000000000000, -1.000000000000000000 ) ) ;
#1172 = EDGE_CURVE ( 'NONE', #1138, #17, #370, .T. ) ;
#1173 = CARTESIAN_POINT ( 'NONE',  ( 0.0000000000000000000, 0.0000000000000000000, -0.5749999999999998446 ) ) ;
#1174 = ADVANCED_FACE ( 'NONE', ( #1087 ), #716, .T. ) ;
#1175 = CARTESIAN_POINT ( 'NONE',  ( -0.4949999999999993294, 1.449999999999999956, -0.5749999999999998446 ) ) ;
#1176 = DIRECTION ( 'NONE',  ( 0.0000000000000000000, 0.0000000000000000000, 1.000000000000000000 ) ) ;
#1177 = AXIS2_PLACEMENT_3D ( 'NONE', #116, #594, #119 ) ;
#1178 = MANIFOLD_SOLID_BREP ( 'Fillet1', #1222 ) ;
#1179 = EDGE_LOOP ( 'NONE', ( #96, #219, #747, #250 ) ) ;
#1180 = CARTESIAN_POINT ( 'NONE',  ( 0.9499999999999995115, 1.399999999999999911, 0.5749999999999998446 ) ) ;
#1181 = DIRECTION ( 'NONE',  ( 1.000000000000000000, 0.0000000000000000000, 0.0000000000000000000 ) ) ;
#1182 = EDGE_CURVE ( 'NONE', #314, #72, #898, .T. ) ;
#1183 = ORIENTED_EDGE ( 'NONE', *, *, #1141, .T. ) ;
#1184 = ORIENTED_EDGE ( 'NONE', *, *, #189, .F. ) ;
#1185 = CARTESIAN_POINT ( 'NONE',  ( 0.9499999999999999556, 1.399999999999999911, -0.5749999999999998446 ) ) ;
#1186 = PLANE ( 'NONE',  #800 ) ;
#1187 = VERTEX_POINT ( 'NONE', #1194 ) ;
#1188 = CARTESIAN_POINT ( 'NONE',  ( -0.9499999999999999556, 0.04999999999999991257, -0.5749999999999998446 ) ) ;
#1189 = DIRECTION ( 'NONE',  ( 0.0000000000000000000, -1.000000000000000000, -0.0000000000000000000 ) ) ;
#1190 = ORIENTED_EDGE ( 'NONE', *, *, #786, .F. ) ;
#1191 = PRODUCT_DEFINITION ( 'UNKNOWN', '', #3, #229 ) ;
#1192 = VECTOR ( 'NONE', #958, 1000.000000000000000 ) ;
#1193 = SPHERICAL_SURFACE ( 'NONE', #795, 0.05000000000000000278 ) ;
#1194 = CARTESIAN_POINT ( 'NONE',  ( -0.4949999999999994404, 0.01666666666666662133, 0.5749999999999997335 ) ) ;
#1195 = VECTOR ( 'NONE', #1040, 1000.000000000000000 ) ;
#1196 = CARTESIAN_POINT ( 'NONE',  ( 0.4949999999999995515, 1.449999999999999956, 0.6249999999999998890 ) ) ;
#1197 = EDGE_LOOP ( 'NONE', ( #1105, #1213, #279, #541 ) ) ;
#1198 = EDGE_CURVE ( 'NONE', #579, #825, #108, .T. ) ;
#1199 = CIRCLE ( 'NONE', #574, 0.05000000000000002359 ) ;
#1200 = ORIENTED_EDGE ( 'NONE', *, *, #1153, .F. ) ;
#1201 = ORIENTED_EDGE ( 'NONE', *, *, #47, .T. ) ;
#1202 = AXIS2_PLACEMENT_3D ( 'NONE', #663, #383, #1166 ) ;
#1203 = FILL_AREA_STYLE ('',( #1095 ) ) ;
#1204 = EDGE_CURVE ( 'NONE', #965, #595, #462, .T. ) ;
#1205 = DIRECTION ( 'NONE',  ( 0.0000000000000000000, -1.000000000000000000, 0.0000000000000000000 ) ) ;
#1206 = ORIENTED_EDGE ( 'NONE', *, *, #752, .F. ) ;
#1207 =( LENGTH_UNIT ( ) NAMED_UNIT ( * ) SI_UNIT ( .MILLI., .METRE. ) );
#1208 = AXIS2_PLACEMENT_3D ( 'NONE', #1130, #259, #926 ) ;
#1209 = VERTEX_POINT ( 'NONE', #907 ) ;
#1210 = CIRCLE ( 'NONE', #260, 0.05000000000000002359 ) ;
#1211 = ORIENTED_EDGE ( 'NONE', *, *, #364, .F. ) ;
#1212 = DIRECTION ( 'NONE',  ( 0.0000000000000000000, 1.000000000000000000, 0.0000000000000000000 ) ) ;
#1213 = ORIENTED_EDGE ( 'NONE', *, *, #415, .F. ) ;
#1214 = CARTESIAN_POINT ( 'NONE',  ( 500000.0000000000582, 1.433333333333333348, 0.5749999999566315356 ) ) ;
#1215 = CARTESIAN_POINT ( 'NONE',  ( 0.9499999999999997335, 0.0000000000000000000, 3.295974604355932986E-16 ) ) ;
#1216 = CARTESIAN_POINT ( 'NONE',  ( -0.4949999999999995515, 1.399999999999999911, 0.6249999999999998890 ) ) ;
#1217 = ADVANCED_FACE ( 'NONE', ( #639 ), #778, .F. ) ;
#1218 = CARTESIAN_POINT ( 'NONE',  ( 0.0000000000000000000, 0.0000000000000000000, 0.0000000000000000000 ) ) ;
#1219 =( GEOMETRIC_REPRESENTATION_CONTEXT ( 3 ) GLOBAL_UNCERTAINTY_ASSIGNED_CONTEXT ( ( #452 ) ) GLOBAL_UNIT_ASSIGNED_CONTEXT ( ( #714, #331, #22 ) ) REPRESENTATION_CONTEXT ( 'NONE', 'WORKASPACE' ) );
#1220 =( NAMED_UNIT ( * ) SI_UNIT ( $, .STERADIAN. ) SOLID_ANGLE_UNIT ( ) );
#1221 = EDGE_CURVE ( 'NONE', #1238, #1034, #321, .T. ) ;
#1222 = CLOSED_SHELL ( 'NONE', ( #1028, #432, #254, #922, #1056, #685, #402, #450, #132, #609, #99, #1114, #1167, #316, #50, #906, #535, #785 ) ) ;
#1223 = DIRECTION ( 'NONE',  ( 0.0000000000000000000, 0.0000000000000000000, -1.000000000000000000 ) ) ;
#1224 = CIRCLE ( 'NONE', #53, 0.05000000000000002359 ) ;
#1225 = CIRCLE ( 'NONE', #29, 0.03333333333333334675 ) ;
#1226 = CYLINDRICAL_SURFACE ( 'NONE', #851, 0.05000000000000002359 ) ;
#1227 = ORIENTED_EDGE ( 'NONE', *, *, #859, .T. ) ;
#1228 = DIRECTION ( 'NONE',  ( 0.0000000000000000000, -1.000000000000000000, -0.0000000000000000000 ) ) ;
#1229 = EDGE_CURVE ( 'NONE', #460, #296, #180, .T. ) ;
#1230 = DIRECTION ( 'NONE',  ( 1.000000000000000000, 0.0000000000000000000, -8.673617379884036705E-17 ) ) ;
#1231 = LINE ( 'NONE', #147, #925 ) ;
#1232 = DIRECTION ( 'NONE',  ( 0.0000000000000000000, 0.0000000000000000000, -1.000000000000000000 ) ) ;
#1233 = AXIS2_PLACEMENT_3D ( 'NONE', #195, #1060, #679 ) ;
#1234 = CARTESIAN_POINT ( 'NONE',  ( 0.9499999999999999556, 0.05000000000000000278, -0.5749999999999998446 ) ) ;
#1235 = CARTESIAN_POINT ( 'NONE',  ( 0.4950000000008003553, 1.433333333333333348, -0.5749999999999998446 ) ) ;
#1236 = EDGE_CURVE ( 'NONE', #563, #188, #435, .T. ) ;
#1237 = ORIENTED_EDGE ( 'NONE', *, *, #427, .T. ) ;
#1238 = VERTEX_POINT ( 'NONE', #514 ) ;
#1239 = DIRECTION ( 'NONE',  ( -1.734723475976807341E-16, 0.0000000000000000000, 1.000000000000000000 ) ) ;
#1240 = VECTOR ( 'NONE', #272, 1000.000000000000000 ) ;
#1241 = ORIENTED_EDGE ( 'NONE', *, *, #832, .T. ) ;
#1242 = VECTOR ( 'NONE', #530, 1000.000000000000000 ) ;
#1243 = AXIS2_PLACEMENT_3D ( 'NONE', #243, #1110, #336 ) ;
#1244 = ORIENTED_EDGE ( 'NONE', *, *, #865, .T. ) ;
#1245 = DIRECTION ( 'NONE',  ( -1.000000000000000000, 0.0000000000000000000, 0.0000000000000000000 ) ) ;
#1246 =( LENGTH_UNIT ( ) NAMED_UNIT ( * ) SI_UNIT ( .MILLI., .METRE. ) );
#1247 = EDGE_CURVE ( 'NONE', #313, #965, #654, .T. ) ;
#1248 = DIRECTION ( 'NONE',  ( 0.0000000000000000000, 0.0000000000000000000, -1.000000000000000000 ) ) ;
#1249 = AXIS2_PLACEMENT_3D ( 'NONE', #252, #913, #133 ) ;
#1250 = DIRECTION ( 'NONE',  ( 1.734723475976807341E-16, 0.0000000000000000000, 1.000000000000000000 ) ) ;
#1251 = ORIENTED_EDGE ( 'NONE', *, *, #290, .F. ) ;
#1252 = CYLINDRICAL_SURFACE ( 'NONE', #451, 0.05000000000000002359 ) ;
#1253 = PLANE ( 'NONE',  #586 ) ;
#1254 = VECTOR ( 'NONE', #573, 1000.000000000000000 ) ;
#1255 = CYLINDRICAL_SURFACE ( 'NONE', #201, 0.03333333333333334675 ) ;
#1256 = DIRECTION ( 'NONE',  ( 1.000000000000000000, 0.0000000000000000000, -1.734723475976807341E-16 ) ) ;
#1257 = ORIENTED_EDGE ( 'NONE', *, *, #1236, .F. ) ;
#1258 = ORIENTED_EDGE ( 'NONE', *, *, #608, .F. ) ;
#1259 = MECHANICAL_DESIGN_GEOMETRIC_PRESENTATION_REPRESENTATION (  '', ( #483 ), #1146 ) ;
#1260 = CARTESIAN_POINT ( 'NONE',  ( 0.9499999999999999556, 1.449999999999999956, -0.5749999999999998446 ) ) ;
#1261 = DIRECTION ( 'NONE',  ( 0.0000000000000000000, 0.0000000000000000000, -1.000000000000000000 ) ) ;
#1262 = DIRECTION ( 'NONE',  ( 1.000000000000000000, 0.0000000000000000000, 0.0000000000000000000 ) ) ;
#1263 = VECTOR ( 'NONE', #262, 1000.000000000000000 ) ;
#1264 = EDGE_CURVE ( 'NONE', #947, #1090, #1075, .T. ) ;
#1265 = DIRECTION ( 'NONE',  ( 1.000000000000000000, 0.0000000000000000000, -0.0000000000000000000 ) ) ;
#1266 = ORIENTED_EDGE ( 'NONE', *, *, #1061, .T. ) ;
#1267 = DIRECTION ( 'NONE',  ( 3.469446951953614682E-16, 0.0000000000000000000, -1.000000000000000000 ) ) ;
#1268 = DIRECTION ( 'NONE',  ( 3.469446951953614682E-16, -0.0000000000000000000, 1.000000000000000000 ) ) ;
#1269 = EDGE_CURVE ( 'NONE', #982, #589, #1085, .T. ) ;
#1270 = ORIENTED_EDGE ( 'NONE', *, *, #120, .T. ) ;
#1271 = LINE ( 'NONE', #553, #1016 ) ;
#1272 = VECTOR ( 'NONE', #1007, 1000.000000000000000 ) ;
#1273 = ORIENTED_EDGE ( 'NONE', *, *, #126, .F. ) ;
#1274 = CARTESIAN_POINT ( 'NONE',  ( 0.4949999999999995515, 1.449999999999999956, 0.5749999999999998446 ) ) ;
#1275 = VERTEX_POINT ( 'NONE', #1010 ) ;
#1276 = DIRECTION ( 'NONE',  ( 1.000000000000000000, -0.0000000000000000000, -0.0000000000000000000 ) ) ;
#1277 = AXIS2_PLACEMENT_3D ( 'NONE', #1161, #734, #168 ) ;
#1278 = COLOUR_RGB ( '',0.4862745098039215619, 0.2352941176470588203, 0.01568627450980392135 ) ;
#1279 = DIRECTION ( 'NONE',  ( 0.0000000000000000000, 0.0000000000000000000, 1.000000000000000000 ) ) ;
#1280 = DIRECTION ( 'NONE',  ( -1.000000000000000000, -0.0000000000000000000, 8.673617379884036705E-17 ) ) ;
ENDSEC;
END-ISO-10303-21;
